<svg width="29" height="29" viewBox="0 0 29 29" fill="none" xmlns="http://www.w3.org/2000/svg">
<g clip-path="url(#clip0_6900_31839)">
<path d="M9.8335 5.16602H22.6668C23.2857 5.16602 23.8792 5.41185 24.3167 5.84943C24.7543 6.28702 25.0002 6.88051 25.0002 7.49935C25.0002 8.11819 24.7543 8.71168 24.3167 9.14926C23.8792 9.58685 23.2857 9.83268 22.6668 9.83268H14.5002M9.8335 9.83268H6.3335C5.80004 9.833 5.28258 9.65051 4.86733 9.31562C4.45208 8.98073 4.16412 8.51367 4.05144 7.99224C3.93875 7.47082 4.00813 6.92653 4.24803 6.45005C4.48793 5.97357 4.88385 5.59368 5.36983 5.37368" stroke="#3D3D3D" stroke-width="1.75" stroke-linecap="round" stroke-linejoin="round"/>
<path d="M6.3335 9.83398V21.5007C6.3335 22.1195 6.57933 22.713 7.01691 23.1506C7.4545 23.5882 8.04799 23.834 8.66683 23.834H20.3335C20.7831 23.8339 21.2232 23.704 21.6007 23.4598C21.9782 23.2155 22.2771 22.8674 22.4615 22.4573M22.6668 18.0007V9.83398" stroke="#3D3D3D" stroke-width="1.75" stroke-linecap="round" stroke-linejoin="round"/>
<path d="M12.1667 14.5H14.5001" stroke="#3D3D3D" stroke-width="1.75" stroke-linecap="round" stroke-linejoin="round"/>
<path d="M4.00012 4L25.0001 25" stroke="#3D3D3D" stroke-width="1.75" stroke-linecap="round" stroke-linejoin="round"/>
</g>
<defs>
<clipPath id="clip0_6900_31839">
<rect width="28" height="28" fill="white" transform="translate(0.500122 0.5)"/>
</clipPath>
</defs>
</svg>
