<svg width="31" height="31" viewBox="0 0 31 31" fill="none" xmlns="http://www.w3.org/2000/svg">
<path d="M15.5076 30.1582C23.7381 30.1582 30.5 23.3963 30.5 15.1659C30.5 6.92006 23.7381 0.158203 15.4924 0.158203C7.26186 0.158203 0.5 6.92006 0.5 15.1659C0.5 23.3963 7.26186 30.1582 15.5076 30.1582ZM15.5076 28.9955C7.85849 28.9955 1.66267 22.7997 1.66267 15.1659C1.66267 7.53199 7.85849 1.32088 15.4924 1.32088C23.1415 1.32088 29.3373 7.53199 29.3373 15.1659C29.3373 22.7997 23.1415 28.9955 15.5076 28.9955ZM11.3465 20.918H12.9069C13.5342 20.918 13.8248 20.5662 13.8248 20.0613V10.2398C13.8248 9.73495 13.5342 9.38309 12.9069 9.38309H11.3465C10.7346 9.38309 10.4286 9.73495 10.4286 10.2398V20.0613C10.4286 20.5662 10.7346 20.918 11.3465 20.918ZM18.0931 20.918H19.6382C20.2501 20.918 20.5561 20.5662 20.5561 20.0613V10.2398C20.5561 9.73495 20.2501 9.38309 19.6382 9.38309H18.0931C17.4658 9.38309 17.1752 9.73495 17.1752 10.2398V20.0613C17.1752 20.5662 17.4658 20.918 18.0931 20.918Z" fill="#D9D9D9"/>
</svg>
