<svg width="31" height="32" viewBox="0 0 31 32" fill="none" xmlns="http://www.w3.org/2000/svg">
<circle cx="15.5" cy="16.1582" r="15" fill="#3D3D3D"/>
<path d="M15.5 31.1582C13.5302 31.1582 11.5796 30.7702 9.75975 30.0164C7.93986 29.2626 6.28628 28.1577 4.8934 26.7648C3.50052 25.3719 2.39563 23.7183 1.64181 21.8985C0.887985 20.0786 0.499999 18.128 0.499999 16.1582C0.5 14.1884 0.887986 12.2378 1.64181 10.4179C2.39563 8.59807 3.50052 6.94448 4.8934 5.5516C6.28628 4.15872 7.93987 3.05383 9.75975 2.30001C11.5796 1.54619 13.5302 1.1582 15.5 1.1582C17.4698 1.1582 19.4204 1.54619 21.2403 2.30001C23.0601 3.05383 24.7137 4.15872 26.1066 5.5516C27.4995 6.94448 28.6044 8.59807 29.3582 10.418C30.112 12.2378 30.5 14.1884 30.5 16.1582C30.5 18.128 30.112 20.0786 29.3582 21.8985C28.6044 23.7183 27.4995 25.3719 26.1066 26.7648C24.7137 28.1577 23.0601 29.2626 21.2402 30.0164C19.4204 30.7702 17.4698 31.1582 15.5 31.1582L15.5 31.1582Z" stroke="#898989"/>
<path d="M8.26074 20.1582V14.4648H8.23145L6.43457 15.7051V14.377L8.25586 13.1123H9.7207V20.1582H8.26074ZM12.0693 20.2168C11.6299 20.2168 11.2832 19.8652 11.2832 19.4307C11.2832 18.9912 11.6299 18.6445 12.0693 18.6445C12.5039 18.6445 12.8555 18.9912 12.8555 19.4307C12.8555 19.8652 12.5039 20.2168 12.0693 20.2168ZM16.6299 20.3145C15.1162 20.3145 14.0273 19.416 13.9834 18.1416H15.3457C15.4287 18.7373 15.9561 19.1475 16.6396 19.1475C17.4111 19.1475 17.9434 18.6104 17.9434 17.8438C17.9434 17.0625 17.4111 16.5156 16.6494 16.5156C16.1172 16.5156 15.6582 16.7598 15.4141 17.165H14.0957L14.4424 13.1123H18.9248V14.2842H15.5996L15.4385 16.2129H15.4678C15.7559 15.7393 16.3174 15.4414 17.0352 15.4414C18.3828 15.4414 19.3496 16.4326 19.3496 17.8047C19.3496 19.2988 18.2461 20.3145 16.6299 20.3145ZM22.2402 18.3418H22.2109L21.2295 20.1582H19.7305L21.3711 17.5508L19.7402 14.9238H21.3467L22.2891 16.6914H22.3184L23.2461 14.9238H24.7988L23.1631 17.5117L24.7842 20.1582H23.2363L22.2402 18.3418Z" fill="white"/>
</svg>
