<svg width="353" height="275" viewBox="0 0 353 275" fill="none" xmlns="http://www.w3.org/2000/svg">
<rect y="47" width="337" height="227.889" rx="3.68306" fill="#F8F8F8"/>
<mask id="mask0_2059_59290" style="mask-type:alpha" maskUnits="userSpaceOnUse" x="66" y="85" width="205" height="190">
<rect x="66.2954" y="85.6724" width="204.41" height="189.217" rx="3.68306" fill="#F8F8F8"/>
</mask>
<g mask="url(#mask0_2059_59290)">
<rect x="74.1213" y="95.3403" width="185.995" height="205.331" rx="2.7623" fill="white"/>
<rect x="82.8687" y="109.612" width="162.975" height="11.0492" rx="5.52459" fill="#EEEEEE"/>
<rect x="82.8687" y="125.265" width="162.975" height="11.0492" rx="5.52459" fill="#EEEEEE"/>
<rect x="82.8687" y="140.918" width="105.428" height="11.0492" rx="5.52459" fill="#EEEEEE"/>
<rect x="82.8687" y="269.365" width="162.975" height="11.0492" rx="5.52459" fill="#EEEEEE"/>
<rect x="82.8687" y="158.413" width="162.975" height="104.507" rx="6.90574" fill="#EEEEEE"/>
</g>
<path d="M0 50.6831C0 48.649 1.64896 47 3.68306 47H333.317C335.351 47 337 48.649 337 50.6831V56.2077H0V50.6831Z" fill="#D8D7D5"/>
<path d="M0 56.2075L337 56.2075V73.7021C337 75.7362 335.351 77.3851 333.317 77.3851L0 77.3851L0 56.2075Z" fill="white"/>
<path d="M295.436 68.9757V65.5866C295.436 65.2968 295.776 65.133 296.003 65.3346L297.049 66.8591C297.263 67.0355 297.565 67.0355 297.78 66.8591L298.8 65.3472C299.027 65.1582 299.367 65.3094 299.367 65.5992V67.3882C299.367 68.2575 299.947 68.9631 300.816 68.9631H300.841C301.584 68.9631 302.227 68.4591 302.403 67.741C302.492 67.363 302.567 66.9725 302.567 66.6701C302.555 63.7094 300.047 61.4668 297.049 61.6684C294.504 61.8447 292.45 63.8983 292.274 66.4433C292.072 69.4418 294.441 71.949 297.414 71.949" stroke="#3D3D3D" stroke-width="1.00447" stroke-miterlimit="10"/>
<rect x="10.5889" y="61.272" width="274.848" height="11.0492" rx="5.52459" fill="#EEEEEE"/>
<rect x="306.615" y="61.272" width="11.0492" height="11.0492" rx="5.52459" fill="#EEEEEE"/>
<rect x="320.426" y="61.272" width="11.0492" height="11.0492" rx="5.52459" fill="#EEEEEE"/>
<rect x="3.22266" y="50.2227" width="3.68306" height="3.68306" rx="1.84153" fill="#EEEEEE"/>
<rect x="8.28687" y="50.2227" width="3.68306" height="3.68306" rx="1.84153" fill="#EEEEEE"/>
<rect x="13.3511" y="50.2227" width="3.68306" height="3.68306" rx="1.84153" fill="#EEEEEE"/>
<rect x="89" width="263.28" height="52" rx="3.44" fill="#F9D354"/>
<path d="M104.176 21V11.4H102.704V21H104.176ZM107.609 16.728C107.609 15.448 108.505 14.6 109.833 14.6C111.033 14.6 111.449 15.368 111.449 16.392V21H112.841V16.056C112.841 14.424 112.089 13.336 110.425 13.336C109.129 13.336 108.137 14.136 107.721 15.464H107.577V13.528H106.217V21H107.609V16.728ZM117.629 21.192C119.709 21.192 120.589 20.296 120.589 18.968C120.589 17.768 119.869 17.064 117.725 16.68C116.253 16.44 115.869 16.024 115.869 15.432C115.869 14.776 116.365 14.376 117.357 14.376C118.333 14.376 118.861 14.76 119.101 15.8L120.381 15.528C120.045 14.184 119.357 13.336 117.389 13.336C115.485 13.336 114.525 14.2 114.525 15.512C114.525 16.696 115.245 17.384 117.181 17.736C118.749 18.008 119.245 18.312 119.245 19.016C119.229 19.736 118.701 20.136 117.645 20.136C116.237 20.136 115.693 19.448 115.437 18.472L114.173 18.728C114.477 20.216 115.293 21.192 117.629 21.192ZM122.509 18.776C122.509 20.168 123.197 21.192 124.765 21.192C125.453 21.192 125.853 21.096 126.365 20.936L126.189 19.704C125.789 19.816 125.453 19.896 125.053 19.896C124.221 19.896 123.901 19.464 123.901 18.616V14.68H126.285V13.528H123.901V11.432H122.509V13.528H121.373V14.68H122.509V18.776ZM130.022 20.04C128.918 20.04 128.55 19.512 128.55 18.92C128.55 18.184 129.11 17.8 130.086 17.8H132.278V18.216C132.278 19.272 131.398 20.04 130.022 20.04ZM132.342 21H133.67V16.216C133.67 14.36 132.758 13.352 130.678 13.352C128.886 13.352 127.814 14.232 127.51 15.672L128.822 15.992C129.062 15 129.622 14.504 130.63 14.504C131.846 14.504 132.278 15.112 132.278 16.232V16.84H129.878C128.054 16.84 127.222 17.784 127.222 19.08C127.222 20.52 128.134 21.16 129.542 21.16C130.87 21.16 131.83 20.456 132.198 19.224H132.342V21ZM137.033 10.728H135.641V21H137.033V10.728ZM140.533 10.728H139.141V21H140.533V10.728ZM149.958 21.192C153.014 21.192 154.71 19.16 154.71 16.184C154.71 13.192 152.982 11.208 149.958 11.208C146.95 11.208 145.206 13.192 145.206 16.184C145.206 19.16 146.886 21.192 149.958 21.192ZM149.958 19.912C147.686 19.912 146.662 18.392 146.662 16.168C146.662 13.992 147.718 12.504 149.958 12.504C152.198 12.504 153.254 13.992 153.254 16.168C153.254 18.408 152.214 19.912 149.958 19.912ZM157.594 16.728C157.594 15.448 158.49 14.6 159.818 14.6C160.986 14.6 161.434 15.368 161.434 16.392V21H162.826V16.728C162.826 15.448 163.69 14.6 165.05 14.6C166.218 14.6 166.666 15.368 166.666 16.392V21H168.058V16.056C168.058 14.424 167.274 13.336 165.61 13.336C164.122 13.336 163.242 14.2 162.89 15.576H162.746C162.602 14.216 161.882 13.336 160.41 13.336C159.082 13.336 158.122 14.12 157.706 15.464H157.562V13.528H156.202V21H157.594V16.728ZM171.344 16.728C171.344 15.448 172.24 14.6 173.568 14.6C174.768 14.6 175.184 15.368 175.184 16.392V21H176.576V16.056C176.576 14.424 175.824 13.336 174.16 13.336C172.864 13.336 171.872 14.136 171.456 15.464H171.312V13.528H169.952V21H171.344V16.728ZM180.115 12.088V10.824H178.515V12.088H180.115ZM180.003 21V13.528H178.611V21H180.003ZM185.82 21L188.748 13.528H187.26L186.268 16.392C185.868 17.528 185.436 18.712 185.1 19.8H184.78C184.444 18.696 184.012 17.544 183.612 16.392L182.604 13.528H181.084L184.044 21H185.82ZM192.95 21.192C195.318 21.192 196.694 19.672 196.694 17.24C196.694 14.792 195.206 13.336 192.95 13.336C190.678 13.336 189.206 14.792 189.206 17.24C189.206 19.672 190.582 21.192 192.95 21.192ZM192.95 14.536C194.486 14.536 195.302 15.544 195.302 17.224C195.302 18.904 194.518 19.976 192.934 19.976C191.35 19.976 190.598 18.904 190.598 17.224C190.598 15.544 191.414 14.536 192.95 14.536ZM199.578 21V17.304C199.578 15.624 200.234 14.984 201.85 14.984H202.234V13.448H201.946C200.794 13.448 200.026 14.024 199.642 15.656L199.53 15.64V13.528H198.186V21H199.578ZM206.699 14.44C208.075 14.44 208.731 15.24 208.795 16.664H204.427C204.587 15.176 205.387 14.44 206.699 14.44ZM206.763 21.176C208.699 21.176 209.659 20.28 210.027 18.856L208.811 18.52C208.571 19.352 208.107 20.024 206.763 20.024C205.323 20.024 204.523 19.192 204.411 17.672H210.043C210.075 17.336 210.091 17 210.091 16.776C210.091 14.712 208.971 13.336 206.731 13.336C204.475 13.336 203.019 14.824 203.019 17.32C203.019 19.8 204.443 21.176 206.763 21.176ZM218.91 16.76C220.398 16.76 220.91 17.32 220.91 18.296C220.91 19.224 220.318 19.848 218.99 19.848H216.27V16.76H218.91ZM218.75 12.568C219.982 12.568 220.478 13.064 220.478 14.072C220.478 15.24 219.742 15.672 218.654 15.672H216.27V12.568H218.75ZM214.798 21H219.038C221.406 21 222.366 19.928 222.366 18.408C222.366 17.064 221.63 16.408 220.014 16.232V16.088C221.198 15.8 221.902 15.08 221.902 13.848C221.902 12.232 220.894 11.4 218.702 11.4H214.798V21ZM225.187 21V17.304C225.187 15.624 225.843 14.984 227.459 14.984H227.843V13.448H227.555C226.403 13.448 225.635 14.024 225.251 15.656L225.139 15.64V13.528H223.795V21H225.187ZM232.372 21.192C234.74 21.192 236.116 19.672 236.116 17.24C236.116 14.792 234.628 13.336 232.372 13.336C230.1 13.336 228.628 14.792 228.628 17.24C228.628 19.672 230.004 21.192 232.372 21.192ZM232.372 14.536C233.908 14.536 234.724 15.544 234.724 17.224C234.724 18.904 233.94 19.976 232.356 19.976C230.772 19.976 230.02 18.904 230.02 17.224C230.02 15.544 230.836 14.536 232.372 14.536ZM243.4 13.528H241.8L241 16.44C240.696 17.544 240.392 18.744 240.152 19.912H239.864C239.592 18.712 239.272 17.608 238.92 16.392L238.104 13.528H236.664L239.016 21H240.808L241.672 17.704C241.944 16.68 242.2 15.64 242.392 14.6H242.648C242.84 15.64 243.096 16.68 243.368 17.704L244.264 21H246.088L248.424 13.528H247.032L246.264 16.392C245.928 17.624 245.624 18.712 245.352 19.912H245.064C244.824 18.712 244.52 17.56 244.2 16.44L243.4 13.528ZM252.332 21.192C254.412 21.192 255.292 20.296 255.292 18.968C255.292 17.768 254.572 17.064 252.428 16.68C250.956 16.44 250.572 16.024 250.572 15.432C250.572 14.776 251.068 14.376 252.06 14.376C253.036 14.376 253.564 14.76 253.804 15.8L255.084 15.528C254.748 14.184 254.06 13.336 252.092 13.336C250.188 13.336 249.228 14.2 249.228 15.512C249.228 16.696 249.948 17.384 251.884 17.736C253.452 18.008 253.948 18.312 253.948 19.016C253.932 19.736 253.404 20.136 252.348 20.136C250.94 20.136 250.396 19.448 250.14 18.472L248.876 18.728C249.18 20.216 249.996 21.192 252.332 21.192ZM259.964 14.44C261.34 14.44 261.996 15.24 262.06 16.664H257.692C257.852 15.176 258.652 14.44 259.964 14.44ZM260.028 21.176C261.964 21.176 262.924 20.28 263.292 18.856L262.076 18.52C261.836 19.352 261.372 20.024 260.028 20.024C258.588 20.024 257.788 19.192 257.676 17.672H263.308C263.34 17.336 263.356 17 263.356 16.776C263.356 14.712 262.236 13.336 259.996 13.336C257.74 13.336 256.284 14.824 256.284 17.32C256.284 19.8 257.708 21.176 260.028 21.176ZM266.25 21V17.304C266.25 15.624 266.906 14.984 268.522 14.984H268.906V13.448H268.618C267.466 13.448 266.698 14.024 266.314 15.656L266.202 15.64V13.528H264.858V21H266.25ZM273.36 21H280.016V19.704H274.832V16.76H279.504V15.48H274.832V12.696H280.032V11.4H273.36V21ZM286.803 21H288.339V20.824L285.795 17.32L288.291 13.704V13.528H286.851L284.883 16.728H284.755L282.723 13.528H281.171V13.704L283.715 17.144L281.155 20.824V21H282.643L284.595 17.704H284.739L286.803 21ZM290.134 18.776C290.134 20.168 290.822 21.192 292.39 21.192C293.078 21.192 293.478 21.096 293.99 20.936L293.814 19.704C293.414 19.816 293.078 19.896 292.678 19.896C291.846 19.896 291.526 19.464 291.526 18.616V14.68H293.91V13.528H291.526V11.432H290.134V13.528H288.998V14.68H290.134V18.776ZM298.511 14.44C299.887 14.44 300.543 15.24 300.607 16.664H296.239C296.399 15.176 297.199 14.44 298.511 14.44ZM298.575 21.176C300.511 21.176 301.471 20.28 301.839 18.856L300.623 18.52C300.383 19.352 299.919 20.024 298.575 20.024C297.135 20.024 296.335 19.192 296.223 17.672H301.855C301.887 17.336 301.903 17 301.903 16.776C301.903 14.712 300.783 13.336 298.543 13.336C296.287 13.336 294.831 14.824 294.831 17.32C294.831 19.8 296.255 21.176 298.575 21.176ZM304.797 16.728C304.797 15.448 305.693 14.6 307.021 14.6C308.221 14.6 308.637 15.368 308.637 16.392V21H310.029V16.056C310.029 14.424 309.277 13.336 307.613 13.336C306.317 13.336 305.325 14.136 304.909 15.464H304.765V13.528H303.405V21H304.797V16.728ZM314.816 21.192C316.896 21.192 317.776 20.296 317.776 18.968C317.776 17.768 317.056 17.064 314.912 16.68C313.44 16.44 313.056 16.024 313.056 15.432C313.056 14.776 313.552 14.376 314.544 14.376C315.52 14.376 316.048 14.76 316.288 15.8L317.568 15.528C317.232 14.184 316.544 13.336 314.576 13.336C312.672 13.336 311.712 14.2 311.712 15.512C311.712 16.696 312.432 17.384 314.368 17.736C315.936 18.008 316.432 18.312 316.432 19.016C316.416 19.736 315.888 20.136 314.832 20.136C313.424 20.136 312.88 19.448 312.624 18.472L311.36 18.728C311.664 20.216 312.48 21.192 314.816 21.192ZM320.881 12.088V10.824H319.281V12.088H320.881ZM320.769 21V13.528H319.377V21H320.769ZM326.153 21.192C328.521 21.192 329.897 19.672 329.897 17.24C329.897 14.792 328.409 13.336 326.153 13.336C323.881 13.336 322.409 14.792 322.409 17.24C322.409 19.672 323.785 21.192 326.153 21.192ZM326.153 14.536C327.689 14.536 328.505 15.544 328.505 17.224C328.505 18.904 327.721 19.976 326.137 19.976C324.553 19.976 323.801 18.904 323.801 17.224C323.801 15.544 324.617 14.536 326.153 14.536ZM332.781 16.728C332.781 15.448 333.677 14.6 335.005 14.6C336.205 14.6 336.621 15.368 336.621 16.392V21H338.013V16.056C338.013 14.424 337.261 13.336 335.597 13.336C334.301 13.336 333.309 14.136 332.893 15.464H332.749V13.528H331.389V21H332.781V16.728ZM141.491 40.04C140.387 40.04 140.019 39.512 140.019 38.92C140.019 38.184 140.579 37.8 141.555 37.8H143.747V38.216C143.747 39.272 142.867 40.04 141.491 40.04ZM143.811 41H145.139V36.216C145.139 34.36 144.227 33.352 142.147 33.352C140.355 33.352 139.283 34.232 138.979 35.672L140.291 35.992C140.531 35 141.091 34.504 142.099 34.504C143.315 34.504 143.747 35.112 143.747 36.232V36.84H141.347C139.523 36.84 138.691 37.784 138.691 39.08C138.691 40.52 139.603 41.16 141.011 41.16C142.339 41.16 143.299 40.456 143.667 39.224H143.811V41ZM148.422 36.728C148.422 35.448 149.318 34.6 150.646 34.6C151.846 34.6 152.262 35.368 152.262 36.392V41H153.654V36.056C153.654 34.424 152.902 33.336 151.238 33.336C149.942 33.336 148.95 34.136 148.534 35.464H148.39V33.528H147.03V41H148.422V36.728ZM158.553 39.944C157.129 39.944 156.457 39.08 156.457 37.288C156.457 35.464 157.145 34.6 158.553 34.6C159.897 34.6 160.745 35.576 160.745 37V37.576C160.745 39.032 159.881 39.944 158.553 39.944ZM160.745 41H162.137V30.728H160.745V35.512H160.649C160.281 34.232 159.449 33.336 157.977 33.336C156.153 33.336 155.081 34.744 155.081 37.288C155.081 39.816 156.121 41.192 157.945 41.192C159.353 41.192 160.281 40.28 160.649 39H160.745V41ZM172.546 36.36L173.842 36.088C173.538 34.328 172.562 33.336 170.466 33.336C168.226 33.336 166.738 34.808 166.738 37.288C166.738 39.768 168.162 41.192 170.514 41.192C172.514 41.192 173.538 40.168 173.874 38.456L172.594 38.12C172.322 39.128 171.874 39.96 170.498 39.96C168.978 39.96 168.162 38.92 168.162 37.272C168.162 35.48 169.026 34.568 170.434 34.568C171.778 34.568 172.29 35.256 172.546 36.36ZM176.861 30.728H175.469V41H176.861V30.728ZM180.537 32.088V30.824H178.937V32.088H180.537ZM180.425 41V33.528H179.033V41H180.425ZM187.874 36.36L189.17 36.088C188.866 34.328 187.89 33.336 185.794 33.336C183.554 33.336 182.066 34.808 182.066 37.288C182.066 39.768 183.49 41.192 185.842 41.192C187.842 41.192 188.866 40.168 189.202 38.456L187.922 38.12C187.65 39.128 187.202 39.96 185.826 39.96C184.306 39.96 183.49 38.92 183.49 37.272C183.49 35.48 184.354 34.568 185.762 34.568C187.106 34.568 187.618 35.256 187.874 36.36ZM192.189 30.728H190.797V41H192.189V37.768H192.957L195.885 41H197.485V40.824L194.029 37.208L197.213 33.704V33.528H195.629L192.925 36.712H192.189V30.728ZM202.009 38.776C202.009 40.168 202.697 41.192 204.265 41.192C204.953 41.192 205.353 41.096 205.865 40.936L205.689 39.704C205.289 39.816 204.953 39.896 204.553 39.896C203.721 39.896 203.401 39.464 203.401 38.616V34.68H205.785V33.528H203.401V31.432H202.009V33.528H200.873V34.68H202.009V38.776ZM210.45 41.192C212.818 41.192 214.194 39.672 214.194 37.24C214.194 34.792 212.706 33.336 210.45 33.336C208.178 33.336 206.706 34.792 206.706 37.24C206.706 39.672 208.082 41.192 210.45 41.192ZM210.45 34.536C211.986 34.536 212.802 35.544 212.802 37.224C212.802 38.904 212.018 39.976 210.434 39.976C208.85 39.976 208.098 38.904 208.098 37.224C208.098 35.544 208.914 34.536 210.45 34.536ZM221.691 41.192C223.771 41.192 224.651 40.296 224.651 38.968C224.651 37.768 223.931 37.064 221.787 36.68C220.315 36.44 219.931 36.024 219.931 35.432C219.931 34.776 220.427 34.376 221.419 34.376C222.395 34.376 222.923 34.76 223.163 35.8L224.443 35.528C224.107 34.184 223.419 33.336 221.451 33.336C219.547 33.336 218.587 34.2 218.587 35.512C218.587 36.696 219.307 37.384 221.243 37.736C222.811 38.008 223.307 38.312 223.307 39.016C223.291 39.736 222.763 40.136 221.707 40.136C220.299 40.136 219.755 39.448 219.499 38.472L218.235 38.728C218.539 40.216 219.355 41.192 221.691 41.192ZM228.46 40.04C227.356 40.04 226.988 39.512 226.988 38.92C226.988 38.184 227.548 37.8 228.524 37.8H230.716V38.216C230.716 39.272 229.836 40.04 228.46 40.04ZM230.78 41H232.108V36.216C232.108 34.36 231.196 33.352 229.116 33.352C227.324 33.352 226.252 34.232 225.948 35.672L227.26 35.992C227.5 35 228.06 34.504 229.068 34.504C230.284 34.504 230.716 35.112 230.716 36.232V36.84H228.316C226.492 36.84 225.66 37.784 225.66 39.08C225.66 40.52 226.572 41.16 227.98 41.16C229.308 41.16 230.268 40.456 230.636 39.224H230.78V41ZM237.71 41L240.638 33.528H239.15L238.158 36.392C237.758 37.528 237.326 38.712 236.99 39.8H236.67C236.334 38.696 235.902 37.544 235.502 36.392L234.494 33.528H232.974L235.934 41H237.71ZM244.777 34.44C246.153 34.44 246.809 35.24 246.873 36.664H242.505C242.665 35.176 243.465 34.44 244.777 34.44ZM244.841 41.176C246.777 41.176 247.737 40.28 248.105 38.856L246.889 38.52C246.649 39.352 246.185 40.024 244.841 40.024C243.401 40.024 242.601 39.192 242.489 37.672H248.121C248.153 37.336 248.169 37 248.169 36.776C248.169 34.712 247.049 33.336 244.809 33.336C242.553 33.336 241.097 34.824 241.097 37.32C241.097 39.8 242.521 41.176 244.841 41.176ZM255.132 40.04C254.028 40.04 253.66 39.512 253.66 38.92C253.66 38.184 254.22 37.8 255.196 37.8H257.388V38.216C257.388 39.272 256.508 40.04 255.132 40.04ZM257.452 41H258.78V36.216C258.78 34.36 257.868 33.352 255.788 33.352C253.996 33.352 252.924 34.232 252.62 35.672L253.932 35.992C254.172 35 254.732 34.504 255.74 34.504C256.956 34.504 257.388 35.112 257.388 36.232V36.84H254.988C253.164 36.84 252.332 37.784 252.332 39.08C252.332 40.52 253.244 41.16 254.652 41.16C255.98 41.16 256.94 40.456 257.308 39.224H257.452V41ZM262.062 36.728C262.062 35.448 262.958 34.6 264.286 34.6C265.486 34.6 265.902 35.368 265.902 36.392V41H267.294V36.056C267.294 34.424 266.542 33.336 264.878 33.336C263.582 33.336 262.59 34.136 262.174 35.464H262.03V33.528H260.67V41H262.062V36.728ZM269.426 43.752C271.01 43.752 271.922 42.952 272.706 41.096L275.874 33.528H274.386L273.474 36.216C273.154 37.192 272.674 38.568 272.274 39.768H272.034C271.65 38.6 271.122 37.176 270.77 36.2L269.81 33.528H268.274L271.442 40.936C270.85 42.264 270.354 42.488 269.474 42.488C269.154 42.488 268.85 42.44 268.514 42.376L268.29 43.656C268.626 43.704 268.962 43.752 269.426 43.752ZM281.47 30.728H280.078V41H281.47V30.728ZM285.146 32.088V30.824H283.546V32.088H285.146ZM285.034 41V33.528H283.642V41H285.034ZM288.531 36.728C288.531 35.448 289.427 34.6 290.755 34.6C291.955 34.6 292.371 35.368 292.371 36.392V41H293.763V36.056C293.763 34.424 293.011 33.336 291.347 33.336C290.051 33.336 289.059 34.136 288.643 35.464H288.499V33.528H287.139V41H288.531V36.728ZM297.127 30.728H295.735V41H297.127V37.768H297.895L300.823 41H302.423V40.824L298.967 37.208L302.151 33.704V33.528H300.567L297.863 36.712H297.127V30.728Z" fill="#0A0806" fill-opacity="0.8"/>
<rect x="297.845" y="41" width="12.5085" height="12.5085" transform="rotate(45 297.845 41)" fill="#F9D354"/>
<g filter="url(#filter0_d_2059_59290)">
<path d="M320.827 107.567C321.222 108.514 320.842 112.101 318.75 112.932C316.658 113.763 313.984 112.932 313.984 112.932L309.134 103.23L300.75 111.614V73.75L326.432 99.432H316.863C317.333 100.332 320.326 106.363 320.827 107.567Z" fill="white"/>
<path fill-rule="evenodd" clip-rule="evenodd" d="M303 79.1816V106.182L309.75 99.4316L315.375 110.682C315.375 110.682 316.897 111.167 317.625 110.682C318.353 110.196 319.078 109.218 318.75 108.432C317.203 104.718 313.125 97.1816 313.125 97.1816H321L303 79.1816Z" fill="black"/>
</g>
<defs>
<filter id="filter0_d_2059_59290" x="296.7" y="71.95" width="33.7819" height="47.6518" filterUnits="userSpaceOnUse" color-interpolation-filters="sRGB">
<feFlood flood-opacity="0" result="BackgroundImageFix"/>
<feColorMatrix in="SourceAlpha" type="matrix" values="0 0 0 0 0 0 0 0 0 0 0 0 0 0 0 0 0 0 127 0" result="hardAlpha"/>
<feOffset dy="2.25"/>
<feGaussianBlur stdDeviation="2.025"/>
<feColorMatrix type="matrix" values="0 0 0 0 0 0 0 0 0 0 0 0 0 0 0 0 0 0 0.65 0"/>
<feBlend mode="normal" in2="BackgroundImageFix" result="effect1_dropShadow_2059_59290"/>
<feBlend mode="normal" in="SourceGraphic" in2="effect1_dropShadow_2059_59290" result="shape"/>
</filter>
</defs>
</svg>
