<svg width="29" height="29" viewBox="0 0 29 29" fill="none" xmlns="http://www.w3.org/2000/svg">
<g clip-path="url(#clip0_6896_30722)">
<path d="M4 7.49935C4 6.88051 4.24583 6.28702 4.68342 5.84943C5.121 5.41185 5.71449 5.16602 6.33333 5.16602H22.6667C23.2855 5.16602 23.879 5.41185 24.3166 5.84943C24.7542 6.28702 25 6.88051 25 7.49935C25 8.11819 24.7542 8.71168 24.3166 9.14926C23.879 9.58685 23.2855 9.83268 22.6667 9.83268H6.33333C5.71449 9.83268 5.121 9.58685 4.68342 9.14926C4.24583 8.71168 4 8.11819 4 7.49935Z" stroke="#3D3D3D" stroke-width="1.75" stroke-linecap="round" stroke-linejoin="round"/>
<path d="M6.33325 9.83398V21.5007C6.33325 22.1195 6.57908 22.713 7.01667 23.1506C7.45425 23.5882 8.04775 23.834 8.66659 23.834H20.3333C20.9521 23.834 21.5456 23.5882 21.9832 23.1506C22.4208 22.713 22.6666 22.1195 22.6666 21.5007V9.83398" stroke="#3D3D3D" stroke-width="1.75" stroke-linecap="round" stroke-linejoin="round"/>
<path d="M12.1667 14.5H16.8334" stroke="#3D3D3D" stroke-width="1.75" stroke-linecap="round" stroke-linejoin="round"/>
</g>
<defs>
<clipPath id="clip0_6896_30722">
<rect width="28" height="28" fill="white" transform="translate(0.5 0.5)"/>
</clipPath>
</defs>
</svg>
