<svg width="23" height="23" viewBox="0 0 23 23" fill="none" xmlns="http://www.w3.org/2000/svg">
<g clip-path="url(#clip0)">
<path d="M5.09729 13.8992L4.29669 16.888L1.37052 16.9499C0.496027 15.3279 0 13.4721 0 11.5C0 9.59307 0.463773 7.79475 1.28584 6.2113H1.28647L3.89158 6.68891L5.03278 9.27839C4.79393 9.97472 4.66374 10.7222 4.66374 11.5C4.66383 12.3442 4.81675 13.153 5.09729 13.8992Z" fill="#FBBB00"/>
<path d="M22.7992 9.35168C22.9312 10.0473 23.0001 10.7658 23.0001 11.5C23.0001 12.3234 22.9135 13.1265 22.7486 13.9011C22.1888 16.5373 20.726 18.8392 18.6996 20.4681L18.699 20.4675L15.4177 20.3001L14.9533 17.4011C16.2979 16.6125 17.3488 15.3784 17.9023 13.9011H11.7529V9.35168H17.992H22.7992Z" fill="#518EF8"/>
<path d="M18.6989 20.4675L18.6996 20.4682C16.7288 22.0523 14.2253 23.0001 11.5001 23.0001C7.12061 23.0001 3.31298 20.5522 1.37061 16.9499L5.09737 13.8993C6.06853 16.4912 8.56884 18.3363 11.5001 18.3363C12.76 18.3363 13.9404 17.9957 14.9532 17.4011L18.6989 20.4675Z" fill="#28B446"/>
<path d="M18.8402 2.64752L15.1147 5.69753C14.0665 5.0423 12.8273 4.66379 11.4998 4.66379C8.50221 4.66379 5.95514 6.5935 5.03262 9.27834L1.28627 6.21126H1.28564C3.19959 2.52115 7.05523 0 11.4998 0C14.2901 0 16.8486 0.993941 18.8402 2.64752Z" fill="#F14336"/>
</g>
<defs>
<clipPath id="clip0">
<rect width="23" height="23" fill="white"/>
</clipPath>
</defs>
</svg>