<svg width="136" height="27" viewBox="0 0 136 27" fill="none" xmlns="http://www.w3.org/2000/svg">
<path d="M46.016 13.7676C46.016 10.047 43.7059 7.92578 40.6906 7.92578C37.6586 7.92578 35.3652 10.047 35.3652 13.7676C35.3652 17.4715 37.6586 19.6094 40.6906 19.6094C43.7059 19.6094 46.016 17.4881 46.016 13.7676ZM43.5782 13.7676C43.5782 16.1776 42.4343 17.4826 40.6906 17.4826C38.9414 17.4826 37.803 16.1776 37.803 13.7676C37.803 11.3576 38.9414 10.0526 40.6906 10.0526C42.4343 10.0526 43.5782 11.3576 43.5782 13.7676Z" fill="#3D3D3D"/>
<path d="M50.1427 8.08127V19.4539H52.475V12.0239H52.5694L55.5125 19.3984H57.1007L60.0438 12.0517H60.1382V19.4539H62.4705V8.08127H59.5051L56.3732 15.7223H56.24L53.108 8.08127H50.1427Z" fill="#3D3D3D"/>
<path d="M76.3095 8.08127H73.9161V15.2336H73.8162L68.9073 8.08127H66.7971V19.4539H69.2016V12.296H69.2849L74.2327 19.4539H76.3095V8.08127Z" fill="#3D3D3D"/>
<path d="M83.0462 8.08127H80.6417V19.4539H83.0462V8.08127Z" fill="#3D3D3D"/>
<path d="M89.4247 8.08127H86.7537L90.6797 19.4539H93.7783L97.6987 8.08127H95.0332L92.2789 16.7218H92.1734L89.4247 8.08127Z" fill="#3D3D3D"/>
<path d="M111.223 13.7676C111.223 10.047 108.913 7.92578 105.897 7.92578C102.865 7.92578 100.572 10.047 100.572 13.7676C100.572 17.4715 102.865 19.6094 105.897 19.6094C108.913 19.6094 111.223 17.4881 111.223 13.7676ZM108.785 13.7676C108.785 16.1776 107.641 17.4826 105.897 17.4826C104.148 17.4826 103.01 16.1776 103.01 13.7676C103.01 11.3576 104.148 10.0526 105.897 10.0526C107.641 10.0526 108.785 11.3576 108.785 13.7676Z" fill="#3D3D3D"/>
<path d="M115.349 19.4539H117.754V15.4224H119.509L121.663 19.4539H124.317L121.902 15.0337C123.196 14.4784 123.912 13.3511 123.912 11.7963C123.912 9.53616 122.418 8.08127 119.836 8.08127H115.349V19.4539ZM117.754 13.4899V10.047H119.375C120.764 10.047 121.435 10.6634 121.435 11.7963C121.435 12.9235 120.764 13.4899 119.386 13.4899H117.754Z" fill="#3D3D3D"/>
<path d="M127.957 19.4539H135.642V17.4715H130.361V14.756H135.226V12.7736H130.361V10.0637H135.62V8.08127H127.957V19.4539Z" fill="#3D3D3D"/>
<path d="M9.13628 18.637V10.8781C9.13628 10.2147 9.91506 9.8397 10.4342 10.3012L12.8283 13.7913C13.3186 14.1951 14.0108 14.1951 14.5012 13.7913L16.8375 10.33C17.3567 9.89738 18.1355 10.2435 18.1355 10.9069V15.0027C18.1355 16.9929 19.4623 18.6081 21.4525 18.6081H21.5101C23.2119 18.6081 24.6829 17.4544 25.0867 15.8103C25.2886 14.945 25.4617 14.0508 25.4617 13.3586C25.4329 6.58038 19.693 1.44624 12.8283 1.90774C7.00186 2.31154 2.30037 7.01303 1.89657 12.8394C1.43507 19.7042 6.85765 25.444 13.6647 25.444" stroke="#3D3D3D" stroke-width="2.29961" stroke-miterlimit="10"/>
</svg>
