<svg xmlns="http://www.w3.org/2000/svg" width="192" height="192" fill="#000000" viewBox="0 0 256 256"><rect width="256" height="256" fill="none"></rect><circle cx="128" cy="120" r="40" fill="none" stroke="#000000" stroke-miterlimit="10" stroke-width="16"></circle><path d="M63.8,199.4a72,72,0,0,1,128.4,0" fill="none" stroke="#000000" stroke-linecap="round" stroke-linejoin="round" stroke-width="16"></path><circle cx="200" cy="56" r="16" fill="none" stroke="#000000" stroke-linecap="round" stroke-linejoin="round" stroke-width="16"></circle><line x1="200" y1="40" x2="200" y2="28" fill="none" stroke="#000000" stroke-linecap="round" stroke-linejoin="round" stroke-width="16"></line><line x1="186.1" y1="48" x2="175.8" y2="42" fill="none" stroke="#000000" stroke-linecap="round" stroke-linejoin="round" stroke-width="16"></line><line x1="186.1" y1="64" x2="175.8" y2="70" fill="none" stroke="#000000" stroke-linecap="round" stroke-linejoin="round" stroke-width="16"></line><line x1="200" y1="72" x2="200" y2="84" fill="none" stroke="#000000" stroke-linecap="round" stroke-linejoin="round" stroke-width="16"></line><line x1="213.9" y1="64" x2="224.2" y2="70" fill="none" stroke="#000000" stroke-linecap="round" stroke-linejoin="round" stroke-width="16"></line><line x1="213.9" y1="48" x2="224.2" y2="42" fill="none" stroke="#000000" stroke-linecap="round" stroke-linejoin="round" stroke-width="16"></line><path d="M223.3,116.5A87.7,87.7,0,0,1,224,128a96,96,0,1,1-96-96,87,87,0,0,1,8.9.4" fill="none" stroke="#000000" stroke-linecap="round" stroke-linejoin="round" stroke-width="16"></path></svg>