<svg width="24" height="24" viewBox="0 0 24 24" fill="none" xmlns="http://www.w3.org/2000/svg">
<ellipse cx="7.5" cy="7.5" rx="4.5" ry="5.25" fill="#BEBDC2"/>
<path d="M14.25 20.25C14.25 22.5 12 21.75 7.49997 21.75C2.99994 21.75 0.75 22.5 0.75 20.25C0.75 18 2.99994 15 7.49997 15C12 15 14.25 18 14.25 20.25Z" fill="#BEBDC2"/>
<path fill-rule="evenodd" clip-rule="evenodd" d="M14.25 7.5C14.25 8.80897 13.9293 10.1051 13.3439 11.2422C14.1561 12.1747 15.2705 12.75 16.5 12.75C18.9853 12.75 21 10.3995 21 7.5C21 4.60051 18.9853 2.25 16.5 2.25C15.2705 2.25 14.1561 2.8253 13.3439 3.75776C13.9293 4.89491 14.25 6.19103 14.25 7.5ZM19.2 21.8214C21.9 21.9357 23.25 21.9928 23.25 20.25C23.25 18 21 15 16.5 15C15.6745 15 14.9247 15.101 14.2507 15.2797C15.7004 16.6755 16.5 18.4807 16.5 20.25C16.5 20.7213 16.4376 21.2428 16.2513 21.7508C16.3334 21.7503 16.4163 21.75 16.5 21.75C17.5143 21.75 18.4143 21.7881 19.2 21.8214ZM12 21.8688C13.5 21.8481 14.25 21.549 14.25 20.25C14.25 18.951 13.5 17.4019 12 16.3246C10.5 17.4019 9.75 18.951 9.75 20.25C9.75 21.5491 10.5 21.8481 12 21.8688Z" fill="#BEBDC2"/>
</svg>
