<svg width="20" height="20" viewBox="0 0 20 20" fill="none" xmlns="http://www.w3.org/2000/svg">
<g opacity="0.3">
<circle cx="9.99999" cy="9.99984" r="8.33333" stroke="#1C366A" stroke-width="2"/>
<path d="M10.2869 4.55518C10.6069 4.55518 10.8669 4.67018 11.0669 4.90018C11.2669 5.12018 11.3669 5.40018 11.3669 5.74018C11.3669 6.10018 11.2519 6.40518 11.0219 6.65518C10.8019 6.89518 10.5269 7.01518 10.1969 7.01518C9.86687 7.01518 9.59687 6.90518 9.38687 6.68518C9.18687 6.46518 9.08687 6.19018 9.08687 5.86018C9.08687 5.51018 9.20687 5.20518 9.44687 4.94518C9.69687 4.68518 9.97687 4.55518 10.2869 4.55518ZM9.76187 8.33518C10.2619 8.33518 10.6169 8.48518 10.8269 8.78518C11.0469 9.08518 11.1569 9.51518 11.1569 10.0752C11.1569 10.3752 11.1169 10.8302 11.0369 11.4402C10.9569 12.0402 10.9069 12.4252 10.8869 12.5952C10.8669 12.7252 10.8269 13.0152 10.7669 13.4652C10.7069 13.9052 10.6769 14.2102 10.6769 14.3802C10.6769 14.6402 10.7519 14.7702 10.9019 14.7702C11.1719 14.7702 11.4169 14.3752 11.6369 13.5852L12.4469 13.8252C12.3869 14.1552 12.2569 14.5002 12.0569 14.8602C11.8569 15.2202 11.5969 15.5302 11.2769 15.7902C10.9569 16.0402 10.5869 16.1652 10.1669 16.1652C9.63687 16.1652 9.26187 16.0252 9.04187 15.7452C8.83187 15.4652 8.72687 15.0402 8.72687 14.4702C8.72687 14.0202 8.81687 13.2252 8.99687 12.0852C9.14687 11.1052 9.22187 10.4502 9.22187 10.1202C9.22187 9.86018 9.14187 9.73018 8.98187 9.73018C8.72187 9.73018 8.48187 10.1252 8.26187 10.9152L7.45187 10.6752C7.51187 10.3552 7.64187 10.0152 7.84187 9.65518C8.05187 9.28518 8.31687 8.97518 8.63687 8.72518C8.96687 8.46518 9.34187 8.33518 9.76187 8.33518Z" fill="#1C366A"/>
</g>
</svg>
