<svg width="16" height="16" viewBox="0 0 16 16" fill="none" xmlns="http://www.w3.org/2000/svg">
<mask id="path-1-inside-1" fill="white">
<rect width="4" height="4" rx="1"/>
</mask>
<rect width="4" height="4" rx="1" stroke="#3D3D3D" stroke-width="3.6" mask="url(#path-1-inside-1)"/>
<mask id="path-2-inside-2" fill="white">
<rect x="6" width="4" height="4" rx="1"/>
</mask>
<rect x="6" width="4" height="4" rx="1" stroke="#3D3D3D" stroke-width="3.6" mask="url(#path-2-inside-2)"/>
<mask id="path-3-inside-3" fill="white">
<rect x="12" width="4" height="4" rx="1"/>
</mask>
<rect x="12" width="4" height="4" rx="1" stroke="#3D3D3D" stroke-width="3.6" mask="url(#path-3-inside-3)"/>
<mask id="path-4-inside-4" fill="white">
<rect x="12" y="6" width="4" height="4" rx="1"/>
</mask>
<rect x="12" y="6" width="4" height="4" rx="1" stroke="#3D3D3D" stroke-width="3.6" mask="url(#path-4-inside-4)"/>
<mask id="path-5-inside-5" fill="white">
<rect x="6" y="6" width="4" height="4" rx="1"/>
</mask>
<rect x="6" y="6" width="4" height="4" rx="1" stroke="#3D3D3D" stroke-width="3.6" mask="url(#path-5-inside-5)"/>
<mask id="path-6-inside-6" fill="white">
<rect y="6" width="4" height="4" rx="1"/>
</mask>
<rect y="6" width="4" height="4" rx="1" stroke="#3D3D3D" stroke-width="3.6" mask="url(#path-6-inside-6)"/>
<mask id="path-7-inside-7" fill="white">
<rect y="12" width="4" height="4" rx="1"/>
</mask>
<rect y="12" width="4" height="4" rx="1" stroke="#3D3D3D" stroke-width="3.6" mask="url(#path-7-inside-7)"/>
<mask id="path-8-inside-8" fill="white">
<rect x="6" y="12" width="4" height="4" rx="1"/>
</mask>
<rect x="6" y="12" width="4" height="4" rx="1" stroke="#3D3D3D" stroke-width="3.6" mask="url(#path-8-inside-8)"/>
<mask id="path-9-inside-9" fill="white">
<rect x="6" y="12" width="4" height="4" rx="1"/>
</mask>
<rect x="6" y="12" width="4" height="4" rx="1" stroke="#3D3D3D" stroke-width="3.6" mask="url(#path-9-inside-9)"/>
<mask id="path-10-inside-10" fill="white">
<rect x="12" y="12" width="4" height="4" rx="1"/>
</mask>
<rect x="12" y="12" width="4" height="4" rx="1" stroke="#3D3D3D" stroke-width="3.6" mask="url(#path-10-inside-10)"/>
<mask id="path-11-inside-11" fill="white">
<rect x="6" y="12" width="4" height="4" rx="1"/>
</mask>
<rect x="6" y="12" width="4" height="4" rx="1" stroke="#3D3D3D" stroke-width="3.6" mask="url(#path-11-inside-11)"/>
</svg>
