<svg width="24" height="24" viewBox="0 0 24 24" fill="none" xmlns="http://www.w3.org/2000/svg">
<path fill-rule="evenodd" clip-rule="evenodd" d="M7.875 3.75C7.875 2.30025 9.05025 1.125 10.5 1.125H13.5C14.9497 1.125 16.125 2.30025 16.125 3.75V4.875H18.75H21C21.6213 4.875 22.125 5.37868 22.125 6C22.125 6.62132 21.6213 7.125 21 7.125H19.8202L19.2661 18.206C19.1563 20.4014 17.3444 22.125 15.1463 22.125H8.85375C6.65564 22.125 4.84366 20.4014 4.73389 18.206L4.17984 7.125H3C2.37868 7.125 1.875 6.62132 1.875 6C1.875 5.37868 2.37868 4.875 3 4.875H5.25H7.875V3.75ZM10.125 4.875H13.875V3.75C13.875 3.54289 13.7071 3.375 13.5 3.375H10.5C10.2929 3.375 10.125 3.54289 10.125 3.75V4.875ZM10.4986 9.69382C10.4676 9.07328 9.93937 8.59538 9.31882 8.6264C8.69828 8.65743 8.22038 9.18563 8.2514 9.80618L8.6264 17.3062C8.65743 17.9267 9.18563 18.4046 9.80618 18.3736C10.4267 18.3426 10.9046 17.8144 10.8736 17.1938L10.4986 9.69382ZM15.7486 9.80618C15.7796 9.18563 15.3017 8.65743 14.6812 8.6264C14.0606 8.59538 13.5324 9.07328 13.5014 9.69382L13.1264 17.1938C13.0954 17.8144 13.5733 18.3426 14.1938 18.3736C14.8144 18.4046 15.3426 17.9267 15.3736 17.3062L15.7486 9.80618Z" fill="#BEBDC2"/>
</svg>
