<?xml version="1.0" encoding="utf-8"?>
<!-- Generator: Adobe Illustrator 22.1.0, SVG Export Plug-In . SVG Version: 6.00 Build 0)  -->
<svg version="1.1" id="Layer_1" xmlns="http://www.w3.org/2000/svg" xmlns:xlink="http://www.w3.org/1999/xlink" x="0px" y="0px"
	 viewBox="0 0 10 10" style="enable-background:new 0 0 10 10;" xml:space="preserve">
<style type="text/css">
	.st0{fill:#25A2E9;}
</style>
<path class="st0" d="M9.4,4.8c0-0.3-0.2-0.5-0.5-0.5l-0.2,0C8.4,4.2,8.2,4,8.1,3.8c0,0,0-0.1-0.1-0.1C8,3.4,8,3.2,8.1,3l0.1-0.2
	c0.2-0.2,0.2-0.5,0-0.7C8.1,2,8,1.9,8,1.8c-0.2-0.2-0.5-0.2-0.7,0L7,1.9C6.8,2,6.6,2,6.3,2c0,0-0.1,0-0.1-0.1C6,1.8,5.8,1.6,5.7,1.4
	l0-0.2c0-0.3-0.3-0.5-0.5-0.5c-0.1,0-0.1,0-0.2,0s-0.1,0-0.2,0c-0.3,0-0.5,0.2-0.5,0.5l0,0.2c0,0.2-0.2,0.4-0.5,0.5
	c0,0-0.1,0-0.1,0.1C3.4,2,3.2,2,3,1.9L2.8,1.8C2.5,1.6,2.2,1.6,2,1.8C2,1.9,1.9,2,1.8,2c-0.2,0.2-0.2,0.5,0,0.7L1.9,3
	C2,3.2,2,3.4,2,3.7c0,0,0,0.1-0.1,0.1C1.8,4,1.6,4.2,1.4,4.2l-0.2,0c-0.3,0-0.5,0.3-0.5,0.5c0,0,0,0.1,0,0.2s0,0.1,0,0.2
	c0,0.3,0.2,0.5,0.5,0.5l0.2,0c0.2,0,0.4,0.2,0.5,0.5c0,0,0,0.1,0.1,0.1C2,6.6,2,6.8,1.9,7L1.8,7.2C1.6,7.5,1.6,7.8,1.8,8
	C1.9,8,2,8.1,2,8.2c0.2,0.2,0.5,0.2,0.7,0L3,8.1C3.2,8,3.4,8,3.7,8c0,0,0.1,0,0.1,0.1C4,8.2,4.2,8.4,4.3,8.6l0,0.2
	c0,0.3,0.3,0.5,0.5,0.5c0.1,0,0.1,0,0.2,0s0.1,0,0.2,0c0.3,0,0.5-0.2,0.5-0.5l0-0.2c0-0.2,0.2-0.4,0.5-0.5c0,0,0.1,0,0.1-0.1
	C6.6,8,6.8,8,7,8.1l0.2,0.1c0.2,0.2,0.5,0.2,0.7,0C8,8.1,8.1,8,8.2,8c0.2-0.2,0.2-0.5,0-0.7L8.1,7C8,6.8,8,6.6,8,6.3
	c0,0,0-0.1,0.1-0.1C8.2,6,8.4,5.8,8.6,5.7l0.2,0c0.3,0,0.5-0.3,0.5-0.5c0-0.1,0-0.1,0-0.2S9.4,4.9,9.4,4.8z M5,6.7
	C4.1,6.7,3.3,5.9,3.3,5S4.1,3.3,5,3.3S6.7,4.1,6.7,5S5.9,6.7,5,6.7z"/>
</svg>
