<?xml version="1.0" encoding="UTF-8" standalone="no"?>
<!DOCTYPE svg PUBLIC "-//W3C//DTD SVG 1.1//EN" "http://www.w3.org/Graphics/SVG/1.1/DTD/svg11.dtd">
<svg version="1.1" xmlns="http://www.w3.org/2000/svg" xmlns:xlink="http://www.w3.org/1999/xlink" preserveAspectRatio="xMidYMid meet" viewBox="0 0 640 640" width="640" height="640"><defs><path d="M569.6 275.2C568.32 275.2 558.08 275.2 556.8 275.2C537.6 268.8 524.8 256 518.4 243.2C518.4 243.2 518.4 236.8 512 236.8C512 217.6 512 204.8 518.4 192C519.04 190.72 524.16 180.48 524.8 179.2C537.6 166.4 537.6 147.2 524.8 134.4C518.4 128 512 121.6 512 115.2C499.2 102.4 480 102.4 467.2 115.2C465.28 115.84 449.92 120.96 448 121.6C435.2 128 422.4 128 403.2 128C403.2 128 396.8 128 396.8 121.6C384 115.2 371.2 102.4 364.8 89.6C364.8 88.32 364.8 78.08 364.8 76.8C364.8 57.6 345.6 44.8 332.8 44.8C326.4 44.8 326.4 44.8 320 44.8C313.6 44.8 313.6 44.8 307.2 44.8C288 44.8 275.2 57.6 275.2 76.8C275.2 78.08 275.2 88.32 275.2 89.6C275.2 102.4 262.4 115.2 243.2 121.6C243.2 121.6 236.8 121.6 236.8 128C217.6 128 204.8 128 192 121.6C190.72 120.96 180.48 115.84 179.2 115.2C160 102.4 140.8 102.4 128 115.2C128 121.6 121.6 128 115.2 128C102.4 140.8 102.4 160 115.2 172.8C115.84 174.72 120.96 190.08 121.6 192C128 204.8 128 217.6 128 236.8C128 236.8 128 243.2 121.6 243.2C115.2 256 102.4 268.8 89.6 268.8C88.32 268.8 78.08 268.8 76.8 268.8C57.6 268.8 44.8 288 44.8 300.8C44.8 300.8 44.8 307.2 44.8 313.6C44.8 320 44.8 320 44.8 326.4C44.8 345.6 57.6 358.4 76.8 358.4C78.08 358.4 88.32 358.4 89.6 358.4C102.4 358.4 115.2 371.2 121.6 390.4C121.6 390.4 121.6 396.8 128 396.8C128 422.4 128 435.2 121.6 448C120.96 449.28 115.84 459.52 115.2 460.8C102.4 480 102.4 499.2 115.2 512C121.6 512 128 518.4 128 524.8C140.8 537.6 160 537.6 172.8 524.8C174.72 524.16 190.08 519.04 192 518.4C204.8 512 217.6 512 236.8 512C236.8 512 243.2 512 243.2 518.4C256 524.8 268.8 537.6 275.2 550.4C275.2 551.68 275.2 561.92 275.2 563.2C275.2 582.4 294.4 595.2 307.2 595.2C313.6 595.2 313.6 595.2 320 595.2C326.4 595.2 326.4 595.2 332.8 595.2C352 595.2 364.8 582.4 364.8 563.2C364.8 561.92 364.8 551.68 364.8 550.4C364.8 537.6 377.6 524.8 396.8 518.4C396.8 518.4 403.2 518.4 403.2 512C422.4 512 435.2 512 448 518.4C449.28 519.04 459.52 524.16 460.8 524.8C473.6 537.6 492.8 537.6 505.6 524.8C512 518.4 518.4 512 524.8 512C537.6 499.2 537.6 480 524.8 467.2C524.16 465.28 519.04 449.92 518.4 448C512 435.2 512 422.4 512 403.2C512 403.2 512 396.8 518.4 396.8C524.8 384 537.6 371.2 550.4 364.8C551.68 364.8 561.92 364.8 563.2 364.8C582.4 364.8 595.2 345.6 595.2 332.8C595.2 326.4 595.2 326.4 595.2 320C595.2 313.6 601.6 313.6 601.6 307.2C601.6 288 588.8 275.2 569.6 275.2ZM211.2 320C211.2 262.4 262.4 211.2 320 211.2C377.6 211.2 428.8 262.4 428.8 320C428.8 377.6 377.6 428.8 320 428.8C262.4 428.8 211.2 377.6 211.2 320Z" id="aObt2IEvA"></path></defs><g><g><g><use xlink:href="#aObt2IEvA" opacity="1" fill="#416ed2" fill-opacity="1"></use><g><use xlink:href="#aObt2IEvA" opacity="1" fill-opacity="0" stroke="#000000" stroke-width="1" stroke-opacity="0"></use></g></g></g></g></svg>