<svg width="42" height="42" viewBox="0 0 42 42" fill="none" xmlns="http://www.w3.org/2000/svg">
<path fill-rule="evenodd" clip-rule="evenodd" d="M19.5976 0.896599C31.2818 0.111109 41.1468 8.87303 41.1964 20.5135L41.1964 20.52C41.1964 21.808 40.8827 23.375 40.5637 24.7421L40.5617 24.7507L40.5596 24.7593C39.7537 28.0404 36.8168 30.3406 33.4282 30.3406H33.337C29.1882 30.3406 26.5722 26.9339 26.5722 23.1197V17.6577L23.4811 22.237L23.311 22.3771C21.9745 23.4778 20.07 23.4778 18.7335 22.3771L18.5679 22.2407L15.3811 17.5949V28.8666H12.3419V16.5975C12.3419 14.2754 15.0942 12.9235 16.9235 14.5495L17.0621 14.6728L20.7932 20.112C20.9389 20.18 21.1015 20.1806 21.2476 20.1137L24.9007 14.7018L25.0665 14.5635C26.8043 13.1154 29.6114 14.2115 29.6114 16.6431V23.1197C29.6114 25.5997 31.1915 27.3014 33.337 27.3014H33.4282C35.4188 27.3014 37.1321 25.9565 37.6061 24.0424C37.9242 22.6781 38.1566 21.4224 38.1572 20.5234C38.1138 10.7292 29.8276 3.25579 19.8031 3.92886C11.3475 4.51568 4.51626 11.3469 3.92944 19.8025C3.25982 29.7763 11.1349 38.111 21.0223 38.111V41.1502C9.3822 41.1502 0.108213 31.3329 0.897179 19.5971L0.897393 19.5939C1.58836 9.62425 9.62483 1.58778 19.5945 0.896813L19.5976 0.896599Z" fill="#3D3D3D"/>
</svg>
