<svg width="29" height="29" viewBox="0 0 29 29" fill="none" xmlns="http://www.w3.org/2000/svg">
<g clip-path="url(#clip0_6896_30734)">
<path d="M5.16663 8.66602H23.8333" stroke="#3D3D3D" stroke-width="1.75" stroke-linecap="round" stroke-linejoin="round"/>
<path d="M12.1666 13.334V20.334" stroke="#3D3D3D" stroke-width="1.75" stroke-linecap="round" stroke-linejoin="round"/>
<path d="M16.8334 13.334V20.334" stroke="#3D3D3D" stroke-width="1.75" stroke-linecap="round" stroke-linejoin="round"/>
<path d="M6.33337 8.66602L7.50004 22.666C7.50004 23.2849 7.74587 23.8783 8.18346 24.3159C8.62104 24.7535 9.21454 24.9993 9.83337 24.9993H19.1667C19.7855 24.9993 20.379 24.7535 20.8166 24.3159C21.2542 23.8783 21.5 23.2849 21.5 22.666L22.6667 8.66602" stroke="#3D3D3D" stroke-width="1.75" stroke-linecap="round" stroke-linejoin="round"/>
<path d="M11 8.66667V5.16667C11 4.85725 11.1229 4.5605 11.3417 4.34171C11.5605 4.12292 11.8572 4 12.1667 4H16.8333C17.1428 4 17.4395 4.12292 17.6583 4.34171C17.8771 4.5605 18 4.85725 18 5.16667V8.66667" stroke="#3D3D3D" stroke-width="1.75" stroke-linecap="round" stroke-linejoin="round"/>
</g>
<defs>
<clipPath id="clip0_6896_30734">
<rect width="28" height="28" fill="white" transform="translate(0.5 0.5)"/>
</clipPath>
</defs>
</svg>
