<svg width="35" height="35" viewBox="0 0 35 35" fill="none" xmlns="http://www.w3.org/2000/svg">
<rect x="0.5" y="0.5" width="34" height="34" rx="17" stroke="#3D3D3D"/>
<g clip-path="url(#clip0_9916_1805)">
<path d="M10.8333 17.4998C10.8333 17.7209 10.921 17.9328 11.0773 18.0891C11.2336 18.2454 11.4456 18.3332 11.6666 18.3332C11.8876 18.3332 12.0996 18.2454 12.2558 18.0891C12.4121 17.9328 12.4999 17.7209 12.4999 17.4998C12.4999 17.2788 12.4121 17.0669 12.2558 16.9106C12.0996 16.7543 11.8876 16.6665 11.6666 16.6665C11.4456 16.6665 11.2336 16.7543 11.0773 16.9106C10.921 17.0669 10.8333 17.2788 10.8333 17.4998Z" fill="#D9D9D9" stroke="#D9D9D9" stroke-width="1.5" stroke-linecap="round" stroke-linejoin="round"/>
<path d="M16.6667 17.4998C16.6667 17.7209 16.7545 17.9328 16.9108 18.0891C17.0671 18.2454 17.2791 18.3332 17.5001 18.3332C17.7211 18.3332 17.9331 18.2454 18.0893 18.0891C18.2456 17.9328 18.3334 17.7209 18.3334 17.4998C18.3334 17.2788 18.2456 17.0669 18.0893 16.9106C17.9331 16.7543 17.7211 16.6665 17.5001 16.6665C17.2791 16.6665 17.0671 16.7543 16.9108 16.9106C16.7545 17.0669 16.6667 17.2788 16.6667 17.4998Z" fill="#D9D9D9" stroke="#D9D9D9" stroke-width="1.5" stroke-linecap="round" stroke-linejoin="round"/>
<path d="M22.5 17.4998C22.5 17.7209 22.5878 17.9328 22.7441 18.0891C22.9004 18.2454 23.1123 18.3332 23.3333 18.3332C23.5543 18.3332 23.7663 18.2454 23.9226 18.0891C24.0789 17.9328 24.1667 17.7209 24.1667 17.4998C24.1667 17.2788 24.0789 17.0669 23.9226 16.9106C23.7663 16.7543 23.5543 16.6665 23.3333 16.6665C23.1123 16.6665 22.9004 16.7543 22.7441 16.9106C22.5878 17.0669 22.5 17.2788 22.5 17.4998Z" fill="#D9D9D9" stroke="#D9D9D9" stroke-width="1.5" stroke-linecap="round" stroke-linejoin="round"/>
</g>
<defs>
<clipPath id="clip0_9916_1805">
<rect width="20" height="20" fill="white" transform="translate(7.5 7.5)"/>
</clipPath>
</defs>
</svg>
