<svg width="25" height="25" viewBox="0 0 25 25" fill="none" xmlns="http://www.w3.org/2000/svg">
<g clip-path="url(#clip0_5638_26956)">
<path d="M13.5 6.56641H7.5C6.70435 6.56641 5.94129 6.88248 5.37868 7.44509C4.81607 8.0077 4.5 8.77076 4.5 9.56641V21.5664L4.506 21.6804C4.52514 21.8466 4.58565 22.0053 4.68199 22.142C4.77833 22.2787 4.90743 22.3891 5.05746 22.463C5.20749 22.5369 5.37366 22.572 5.54077 22.5651C5.70788 22.5582 5.87059 22.5095 6.014 22.4234L10.5 19.7324L14.986 22.4234C15.1377 22.5143 15.3108 22.5634 15.4876 22.5655C15.6645 22.5677 15.8387 22.523 15.9926 22.4359C16.1465 22.3488 16.2746 22.2224 16.3637 22.0696C16.4528 21.9169 16.4999 21.7433 16.5 21.5664V9.56641C16.5 8.77076 16.1839 8.0077 15.6213 7.44509C15.0587 6.88248 14.2956 6.56641 13.5 6.56641Z" fill="#8E8E93"/>
<path d="M17.5 2.56641C18.2652 2.56636 19.0015 2.85873 19.5582 3.38369C20.115 3.90865 20.4501 4.62651 20.495 5.39041L20.5 5.56641V17.5664C20.5 17.7337 20.4581 17.8983 20.3781 18.0452C20.298 18.192 20.1824 18.3165 20.0419 18.4071C19.9013 18.4978 19.7402 18.5517 19.5734 18.564C19.4066 18.5763 19.2393 18.5465 19.087 18.4774L18.986 18.4234L17.986 17.8234C17.8004 17.712 17.656 17.5433 17.5744 17.3428C17.4929 17.1423 17.4786 16.9208 17.5337 16.7114C17.5888 16.5021 17.7104 16.3163 17.8801 16.182C18.0499 16.0476 18.2586 15.972 18.475 15.9664L18.5 15.9674V5.56641C18.5 5.32147 18.41 5.08507 18.2473 4.90203C18.0845 4.719 17.8602 4.60206 17.617 4.57341L17.5 4.56641H11.499C11.3432 4.56606 11.1894 4.60213 11.05 4.67175C10.9106 4.74138 10.7893 4.84262 10.696 4.96741L10.566 5.16441C10.4124 5.36587 10.1881 5.50152 9.9383 5.54397C9.68854 5.58641 9.43199 5.53248 9.22046 5.39307C9.00893 5.25366 8.8582 5.03916 8.79871 4.79291C8.73923 4.54666 8.77542 4.287 8.89999 4.06641C9.14644 3.63932 9.49437 3.27957 9.91298 3.01899C10.3316 2.7584 10.808 2.60502 11.3 2.57241L11.5 2.56641H17.5Z" fill="#8E8E93"/>
</g>
<defs>
<clipPath id="clip0_5638_26956">
<rect width="24" height="24" fill="white" transform="translate(0.5 0.566406)"/>
</clipPath>
</defs>
</svg>
