<svg width="25" height="25" viewBox="0 0 25 25" fill="none" xmlns="http://www.w3.org/2000/svg">
<g clip-path="url(#clip0_6919_3684)">
<path d="M6.18056 17.3044C6.26969 17.3464 6.36622 17.3704 6.46464 17.3751C6.56307 17.3798 6.66145 17.3651 6.75418 17.3317C6.8469 17.2984 6.93214 17.2471 7.00504 17.1808C7.07793 17.1145 7.13704 17.0345 7.17899 16.9453L8.74087 13.6256H16.2596L17.8215 16.9453C17.8635 17.0345 17.9226 17.1144 17.9955 17.1807C18.0684 17.247 18.1536 17.2983 18.2463 17.3316C18.3391 17.365 18.4374 17.3797 18.5359 17.3751C18.6343 17.3704 18.7308 17.3464 18.8199 17.3044C18.9091 17.2624 18.9891 17.2033 19.0553 17.1304C19.1216 17.0575 19.1729 16.9722 19.2062 16.8795C19.2396 16.7868 19.2543 16.6884 19.2497 16.59C19.245 16.4916 19.221 16.3951 19.179 16.3059L13.179 3.55594C13.1184 3.42709 13.0224 3.31815 12.9022 3.24184C12.782 3.16552 12.6426 3.125 12.5002 3.125C12.3579 3.125 12.2184 3.16552 12.0982 3.24184C11.9781 3.31815 11.8821 3.42709 11.8215 3.55594L5.82149 16.3059C5.77948 16.3951 5.75543 16.4916 5.75074 16.59C5.74605 16.6885 5.76079 16.7868 5.79414 16.8796C5.82748 16.9723 5.87877 17.0575 5.94508 17.1304C6.01138 17.2033 6.0914 17.2624 6.18056 17.3044ZM12.5002 5.63719L15.5537 12.1256H9.44681L12.5002 5.63719ZM21.5002 21.1256C21.5002 21.3245 21.4212 21.5153 21.2806 21.656C21.1399 21.7966 20.9492 21.8756 20.7502 21.8756H4.25024C4.05133 21.8756 3.86057 21.7966 3.71991 21.656C3.57926 21.5153 3.50024 21.3245 3.50024 21.1256C3.50024 20.9267 3.57926 20.736 3.71991 20.5953C3.86057 20.4546 4.05133 20.3756 4.25024 20.3756H20.7502C20.9492 20.3756 21.1399 20.4546 21.2806 20.5953C21.4212 20.736 21.5002 20.9267 21.5002 21.1256Z" fill="#6A6968"/>
</g>
<defs>
<clipPath id="clip0_6919_3684">
<rect width="25" height="25" fill="white" transform="translate(0.000244141)"/>
</clipPath>
</defs>
</svg>
