<svg width="22" height="22" viewBox="0 0 22 22" fill="none" xmlns="http://www.w3.org/2000/svg">
<path d="M5.20695 15.404C5.28865 15.4425 5.37714 15.4646 5.46737 15.4689C5.55759 15.4732 5.64778 15.4597 5.73277 15.4291C5.81777 15.3985 5.89591 15.3515 5.96273 15.2907C6.02954 15.23 6.08373 15.1566 6.12219 15.0749L7.55391 12.0318H14.4461L15.8778 15.0749C15.9163 15.1566 15.9705 15.2299 16.0373 15.2907C16.1041 15.3514 16.1823 15.3984 16.2673 15.429C16.3522 15.4596 16.4424 15.4731 16.5326 15.4688C16.6229 15.4645 16.7113 15.4425 16.793 15.404C16.8748 15.3655 16.9481 15.3113 17.0088 15.2445C17.0696 15.1777 17.1166 15.0996 17.1472 15.0146C17.1777 14.9296 17.1913 14.8394 17.187 14.7492C17.1827 14.659 17.1607 14.5705 17.1222 14.4888L11.6222 2.80128C11.5667 2.68317 11.4787 2.5833 11.3685 2.51335C11.2583 2.4434 11.1305 2.40625 11 2.40625C10.8695 2.40625 10.7417 2.4434 10.6315 2.51335C10.5213 2.5833 10.4333 2.68317 10.3778 2.80128L4.87781 14.4888C4.8393 14.5705 4.81726 14.659 4.81295 14.7492C4.80865 14.8394 4.82217 14.9296 4.85274 15.0146C4.8833 15.0996 4.93032 15.1777 4.9911 15.2446C5.05188 15.3114 5.12522 15.3656 5.20695 15.404ZM11 4.70909L13.799 10.6568H8.20102L11 4.70909ZM19.25 18.9068C19.25 19.0892 19.1776 19.264 19.0486 19.393C18.9197 19.5219 18.7448 19.5943 18.5625 19.5943H3.4375C3.25516 19.5943 3.0803 19.5219 2.95136 19.393C2.82243 19.264 2.75 19.0892 2.75 18.9068C2.75 18.7245 2.82243 18.5496 2.95136 18.4207C3.0803 18.2918 3.25516 18.2193 3.4375 18.2193H18.5625C18.7448 18.2193 18.9197 18.2918 19.0486 18.4207C19.1776 18.5496 19.25 18.7245 19.25 18.9068Z" fill="#D9D9D9"/>
</svg>
