<svg width="25" height="25" viewBox="0 0 25 25" fill="none" xmlns="http://www.w3.org/2000/svg">
<g clip-path="url(#clip0_6919_3687)">
<path d="M4.16699 12.5007C4.16699 12.7769 4.27674 13.0419 4.47209 13.2372C4.66744 13.4326 4.93239 13.5423 5.20866 13.5423C5.48493 13.5423 5.74988 13.4326 5.94523 13.2372C6.14058 13.0419 6.25033 12.7769 6.25033 12.5007C6.25033 12.2244 6.14058 11.9594 5.94523 11.7641C5.74988 11.5687 5.48493 11.459 5.20866 11.459C4.93239 11.459 4.66744 11.5687 4.47209 11.7641C4.27674 11.9594 4.16699 12.2244 4.16699 12.5007Z" fill="#6A6968" stroke="#6A6968" stroke-width="1.5" stroke-linecap="round" stroke-linejoin="round"/>
<path d="M11.4585 12.5007C11.4585 12.7769 11.5682 13.0419 11.7636 13.2372C11.9589 13.4326 12.2239 13.5423 12.5002 13.5423C12.7764 13.5423 13.0414 13.4326 13.2367 13.2372C13.4321 13.0419 13.5418 12.7769 13.5418 12.5007C13.5418 12.2244 13.4321 11.9594 13.2367 11.7641C13.0414 11.5687 12.7764 11.459 12.5002 11.459C12.2239 11.459 11.9589 11.5687 11.7636 11.7641C11.5682 11.9594 11.4585 12.2244 11.4585 12.5007Z" fill="#6A6968" stroke="#6A6968" stroke-width="1.5" stroke-linecap="round" stroke-linejoin="round"/>
<path d="M18.7502 12.5007C18.7502 12.7769 18.86 13.0419 19.0553 13.2372C19.2507 13.4326 19.5156 13.5423 19.7919 13.5423C20.0682 13.5423 20.3331 13.4326 20.5285 13.2372C20.7238 13.0419 20.8336 12.7769 20.8336 12.5007C20.8336 12.2244 20.7238 11.9594 20.5285 11.7641C20.3331 11.5687 20.0682 11.459 19.7919 11.459C19.5156 11.459 19.2507 11.5687 19.0553 11.7641C18.86 11.9594 18.7502 12.2244 18.7502 12.5007Z" fill="#6A6968" stroke="#6A6968" stroke-width="1.5" stroke-linecap="round" stroke-linejoin="round"/>
</g>
<defs>
<clipPath id="clip0_6919_3687">
<rect width="25" height="25" fill="white" transform="translate(0.000244141)"/>
</clipPath>
</defs>
</svg>
