<svg width="26" height="26" viewBox="0 0 26 26" fill="none" xmlns="http://www.w3.org/2000/svg">
<path d="M13 2.4375C10.9109 2.4375 8.86879 3.05698 7.13179 4.2176C5.3948 5.37822 4.04098 7.02786 3.24153 8.95791C2.44208 10.8879 2.2329 13.0117 2.64046 15.0606C3.04802 17.1096 4.054 18.9916 5.53119 20.4688C7.00838 21.946 8.89044 22.952 10.9394 23.3595C12.9883 23.7671 15.1121 23.5579 17.0421 22.7585C18.9721 21.959 20.6218 20.6052 21.7824 18.8682C22.943 17.1312 23.5625 15.0891 23.5625 13C23.5595 10.1996 22.4458 7.51466 20.4656 5.53445C18.4853 3.55424 15.8004 2.44046 13 2.4375ZM13 21.9375C11.2323 21.9375 9.50436 21.4133 8.0346 20.4313C6.56483 19.4492 5.41929 18.0533 4.74283 16.4202C4.06637 14.7871 3.88938 12.9901 4.23424 11.2564C4.57909 9.52268 5.43031 7.93016 6.68024 6.68023C7.93017 5.4303 9.52268 4.57909 11.2564 4.23423C12.9901 3.88938 14.7871 4.06637 16.4202 4.74283C18.0534 5.41928 19.4492 6.56483 20.4313 8.03459C21.4133 9.50435 21.9375 11.2323 21.9375 13C21.9348 15.3695 20.9923 17.6413 19.3168 19.3168C17.6413 20.9923 15.3696 21.9348 13 21.9375ZM16.7009 12.3236L11.8259 9.07359C11.7036 8.99193 11.5613 8.94504 11.4143 8.93792C11.2674 8.9308 11.1212 8.96372 10.9915 9.03317C10.8618 9.10261 10.7534 9.20597 10.6778 9.33222C10.6023 9.45847 10.5624 9.60287 10.5625 9.75V16.25C10.5624 16.3971 10.6023 16.5415 10.6778 16.6678C10.7534 16.794 10.8618 16.8974 10.9915 16.9668C11.1212 17.0363 11.2674 17.0692 11.4143 17.0621C11.5613 17.055 11.7036 17.0081 11.8259 16.9264L16.7009 13.6764C16.8124 13.6022 16.9038 13.5017 16.967 13.3837C17.0302 13.2657 17.0633 13.1339 17.0633 13C17.0633 12.8661 17.0302 12.7343 16.967 12.6163C16.9038 12.4983 16.8124 12.3978 16.7009 12.3236ZM12.1875 14.7316V11.2734L14.7855 13L12.1875 14.7316Z" fill="#D9D9D9"/>
</svg>
