<svg width="24" height="24" viewBox="0 0 24 24" fill="none" xmlns="http://www.w3.org/2000/svg">
<path d="M14.2495 18.7493V14.2492C14.2495 14.0503 14.1704 13.8595 14.0298 13.7189C13.8891 13.5782 13.6984 13.4992 13.4995 13.4992H10.4995C10.3005 13.4992 10.1098 13.5782 9.96912 13.7189C9.82847 13.8595 9.74945 14.0503 9.74945 14.2492V18.7493C9.74945 18.9482 9.67045 19.1389 9.52981 19.2796C9.38918 19.4202 9.19844 19.4992 8.99954 19.4993L4.50009 19.4999C4.40159 19.4999 4.30406 19.4805 4.21305 19.4428C4.12205 19.4051 4.03936 19.3499 3.9697 19.2802C3.90005 19.2106 3.8448 19.1279 3.8071 19.0369C3.7694 18.9459 3.75 18.8484 3.75 18.7499V10.0817C3.75 9.97721 3.77183 9.87388 3.8141 9.77832C3.85637 9.68276 3.91814 9.59709 3.99545 9.52679L11.4949 2.70791C11.633 2.58238 11.8129 2.51282 11.9995 2.51282C12.186 2.51281 12.3659 2.58236 12.504 2.70787L20.0045 9.52679C20.0818 9.59708 20.1436 9.68276 20.1859 9.77832C20.2282 9.87389 20.25 9.97724 20.25 10.0817V18.7499C20.25 18.8484 20.2306 18.9459 20.1929 19.0369C20.1552 19.1279 20.1 19.2106 20.0303 19.2802C19.9606 19.3499 19.878 19.4051 19.7869 19.4428C19.6959 19.4805 19.5984 19.4999 19.4999 19.4999L14.9994 19.4993C14.8005 19.4993 14.6097 19.4202 14.4691 19.2796C14.3285 19.1389 14.2494 18.9482 14.2495 18.7493V18.7493Z" stroke="#9D9B95" stroke-width="2" stroke-linecap="round" stroke-linejoin="round"/>
</svg>
