<svg width="24" height="25" viewBox="0 0 24 25" fill="none" xmlns="http://www.w3.org/2000/svg">
<g clip-path="url(#clip0_6482_4724)">
<path d="M5.82823 22.4403H18.1683C19.4433 22.4403 20.4604 21.3206 20.2787 20.0572C19.9504 17.7944 18.7779 16.0269 16.5415 15.0128C13.0857 13.4446 9.47455 13.3919 6.27083 15.7778C4.78474 16.8828 4.00506 18.3308 3.72954 19.9898C3.51263 21.2737 4.5268 22.4403 5.82823 22.4403Z" fill="#8E8E93"/>
<path d="M12.0715 12.8117C14.6626 12.7824 16.8639 10.5899 16.82 8.08376C16.776 5.54541 14.5337 3.40568 11.9601 3.44086C9.34851 3.47896 7.24103 5.60696 7.26448 8.18929C7.28499 10.7745 9.43351 12.841 12.0715 12.8117Z" fill="#8E8E93"/>
</g>
<defs>
<clipPath id="clip0_6482_4724">
<rect width="24" height="24" fill="white" transform="translate(0 0.94043)"/>
</clipPath>
</defs>
</svg>
