<svg width="35" height="35" viewBox="0 0 35 35" fill="none" xmlns="http://www.w3.org/2000/svg">
<rect x="0.5" y="0.5" width="34" height="34" rx="17" stroke="#3D3D3D"/>
<g clip-path="url(#clip0_9916_1819)">
<path d="M13.75 12.5002V22.5002C13.75 22.6114 13.7796 22.7206 13.8359 22.8165C13.8921 22.9124 13.9729 22.9916 14.07 23.0459C14.1671 23.1002 14.2769 23.1275 14.3881 23.1252C14.4992 23.1229 14.6078 23.0909 14.7025 23.0327L22.8275 18.0327C22.9185 17.9768 22.9937 17.8985 23.0458 17.8052C23.0979 17.712 23.1253 17.607 23.1253 17.5002C23.1253 17.3934 23.0979 17.2883 23.0458 17.1951C22.9937 17.1019 22.9185 17.0236 22.8275 16.9677L14.7025 11.9677C14.6078 11.9094 14.4992 11.8775 14.3881 11.8751C14.2769 11.8728 14.1671 11.9002 14.07 11.9545C13.9729 12.0087 13.8921 12.0879 13.8359 12.1838C13.7796 12.2798 13.75 12.389 13.75 12.5002Z" fill="#EDEDED"/>
</g>
<defs>
<clipPath id="clip0_9916_1819">
<rect width="15" height="15" fill="white" transform="translate(10 10)"/>
</clipPath>
</defs>
</svg>
