<svg width="100" height="100" viewBox="0 0 100 100" fill="none" xmlns="http://www.w3.org/2000/svg">
<path fill-rule="evenodd" clip-rule="evenodd" d="M46.6078 0.120027C75.4155 -1.81488 99.6161 19.869 100 48.9055C100 52.0014 99.2321 55.8712 98.4643 59.354C96.5446 67.8676 88.866 73.6723 80.4066 73.6723H80.0227C69.6565 73.6723 62.7329 64.7718 62.7329 55.0843V44.2488L56.59 53.5364L56.2061 53.9234C52.7507 57.0192 47.7596 57.0192 44.3042 53.9234L43.5363 53.5364L37.0095 43.8619V69.0286H28.179V38.8311C28.179 32.6394 35.4737 28.7696 40.4649 33.4134L40.8488 33.8003L49.6792 46.9577L58.8936 34.1873L59.2776 33.8003C63.8847 29.9305 71.5634 33.0264 71.5634 39.6051V55.0972C71.5634 60.902 75.0188 64.7718 80.0099 64.7718H80.3938C85.001 64.7718 88.8404 61.6759 89.9922 57.4191C90.76 53.9363 91.144 51.2274 91.144 48.9055C91.144 25.2867 71.1667 7.48558 47.3628 9.03351C27.0016 10.1945 10.4925 26.8476 8.95679 46.9706C7.42106 70.9764 26.2466 91.0994 49.6664 91.0994V100C20.8587 100 -1.80612 75.6073 0.113544 46.5707C2.046 21.8039 21.6394 1.66795 46.6078 0.120027Z" fill="#3D3D3D"/>
</svg>
