<svg width="133" height="25" viewBox="0 0 133 25" fill="none" xmlns="http://www.w3.org/2000/svg">
<path fill-rule="evenodd" clip-rule="evenodd" d="M11.9341 0.0300066C19.3105 -0.45372 25.5071 4.96725 25.6054 12.2264C25.6054 13.0003 25.4088 13.9678 25.2122 14.8385C24.7206 16.9669 22.7545 18.4181 20.5885 18.4181H20.4901C17.8358 18.4181 16.063 16.1929 16.063 13.7711V11.0622L14.4901 13.3841L14.3918 13.4808C13.507 14.2548 12.229 14.2548 11.3443 13.4808L11.1477 13.3841L9.47643 10.9655V17.2571H7.21535V9.70777C7.21535 8.15985 9.0832 7.19239 10.3612 8.35334L10.4595 8.45008L12.7206 11.7394L15.08 8.54683L15.1783 8.45008C16.358 7.48263 18.3241 8.25659 18.3241 9.90127V13.7743C18.3241 15.2255 19.2089 16.1929 20.4869 16.1929H20.5852C21.7649 16.1929 22.7479 15.419 23.0429 14.3548C23.2395 13.4841 23.3378 12.8069 23.3378 12.2264C23.3378 6.32168 18.2225 1.87139 12.1275 2.25838C6.91388 2.54861 2.68665 6.71189 2.29342 11.7427C1.90019 17.7441 6.72054 22.7749 12.7173 22.7749V25C5.34096 25 -0.462464 18.9018 0.0290734 11.6427C0.523888 5.45098 5.54085 0.416988 11.9341 0.0300066Z" fill="#3D3D3D"/>
<path d="M44.8802 12.5005C44.8802 8.92087 42.6191 6.88599 39.6666 6.88599C36.7174 6.88599 34.453 8.91765 34.453 12.5005C34.453 16.0833 36.7141 18.1149 39.6666 18.1149C42.6191 18.1149 44.8802 16.0801 44.8802 12.5005ZM42.4225 12.5005C42.4225 14.8224 41.3411 16.0801 39.5716 16.0801C37.9004 16.0801 36.7207 14.8224 36.7207 12.5005C36.7207 10.1786 37.802 8.92087 39.5716 8.92087C41.3411 8.82413 42.4225 10.1786 42.4225 12.5005Z" fill="#3D3D3D"/>
<path d="M48.9107 6.93438V17.9666H51.1718V10.8074H51.2701L54.121 17.9698H55.6939L58.5448 10.9042H58.6431V18.0666H60.9042V6.93438H57.955L54.9074 14.2903H54.8091L51.8599 6.93438H48.9107Z" fill="#3D3D3D"/>
<path d="M74.6806 6.98274H72.3212V13.9516H72.2229L67.4025 6.98274H65.2397V18.0149H67.5991V11.0493H67.6974L72.5178 18.0181H74.5823V6.98274H74.6806Z" fill="#3D3D3D"/>
<path d="M81.2706 6.98274H78.9112V18.015H81.2706V6.98274Z" fill="#3D3D3D"/>
<path d="M87.5623 6.98274H84.908L88.742 18.015H91.7895L95.6235 6.98274H92.9692L90.2166 15.3061H90.1183L87.5623 6.98274Z" fill="#3D3D3D"/>
<path d="M109.003 12.5005C109.003 8.92087 106.742 6.88599 103.789 6.88599C100.84 6.88599 98.5758 8.91765 98.5758 12.5005C98.5758 16.0833 100.837 18.1149 103.789 18.1149C106.742 18.1149 109.003 16.0801 109.003 12.5005ZM106.545 12.5005C106.545 14.8224 105.464 16.0801 103.694 16.0801C102.023 16.0801 100.843 14.8224 100.843 12.5005C100.843 10.1786 101.925 8.92087 103.694 8.92087C105.464 8.82413 106.545 10.1786 106.545 12.5005Z" fill="#3D3D3D"/>
<path d="M113.037 17.9698H115.396V14.0968H117.165L119.328 17.9698H121.983L119.623 13.7098C120.901 13.1293 121.589 12.0651 121.589 10.6139C121.589 8.3888 120.115 7.03436 117.555 7.03436H113.128V17.9698H113.037ZM115.396 12.2586V8.87253H116.969C118.345 8.87253 119.033 9.453 119.033 10.5172C119.033 11.5814 118.345 12.1619 117.067 12.1619H115.396V12.2586Z" fill="#3D3D3D"/>
<path d="M125.427 17.9699H133V16.035H127.786V13.4228H132.607V11.4879H127.786V8.97253H133V7.03761H125.427V17.9699Z" fill="#3D3D3D"/>
</svg>
