<?xml version="1.0" encoding="UTF-8"?>
<svg xmlns="http://www.w3.org/2000/svg" xmlns:xlink="http://www.w3.org/1999/xlink" width="32" height="32" viewBox="0 0 32 32" version="1.1">
<g id="surface1">
<path style="fill:none;stroke-width:16;stroke-linecap:round;stroke-linejoin:round;stroke:rgb(0%,0%,0%);stroke-opacity:1;stroke-miterlimit:4;" d="M 216 112 L 216 64 " transform="matrix(0.125,0,0,0.125,0,0)"/>
<path style="fill:none;stroke-width:16;stroke-linecap:round;stroke-linejoin:round;stroke:rgb(0%,0%,0%);stroke-opacity:1;stroke-miterlimit:4;" d="M 240 88 L 192 88 " transform="matrix(0.125,0,0,0.125,0,0)"/>
<path style="fill:none;stroke-width:16;stroke-linecap:round;stroke-linejoin:round;stroke:rgb(0%,0%,0%);stroke-opacity:1;stroke-miterlimit:4;" d="M 168 24 L 168 56 " transform="matrix(0.125,0,0,0.125,0,0)"/>
<path style="fill:none;stroke-width:16;stroke-linecap:round;stroke-linejoin:round;stroke:rgb(0%,0%,0%);stroke-opacity:1;stroke-miterlimit:4;" d="M 184 40 L 152 40 " transform="matrix(0.125,0,0,0.125,0,0)"/>
<path style="fill:none;stroke-width:16;stroke-linecap:round;stroke-linejoin:round;stroke:rgb(0%,0%,0%);stroke-opacity:1;stroke-miterlimit:4;" d="M 216.6875 152.59375 C 184.71875 161.5625 150.375 152.59375 126.90625 129.09375 C 103.40625 105.625 94.4375 71.28125 103.40625 39.3125 C 60.59375 51.21875 32.4375 92 36.4375 136.25 C 40.46875 180.5 75.5 215.53125 119.75 219.5625 C 164 223.5625 204.78125 195.40625 216.6875 152.59375 Z M 216.6875 152.59375 " transform="matrix(0.125,0,0,0.125,0,0)"/>
</g>
</svg>
