<svg width="25" height="25" viewBox="0 0 25 25" fill="none" xmlns="http://www.w3.org/2000/svg">
<g clip-path="url(#clip0_6919_3673)">
<path d="M8.85441 9.89583C9.42971 9.89583 9.89608 9.42946 9.89608 8.85417C9.89608 8.27887 9.42971 7.8125 8.85441 7.8125C8.27911 7.8125 7.81274 8.27887 7.81274 8.85417C7.81274 9.42946 8.27911 9.89583 8.85441 9.89583Z" stroke="#6A6968" stroke-width="1.5" stroke-linecap="round" stroke-linejoin="round"/>
<path d="M4.16699 7.29102V11.3108C4.16699 11.8702 4.38887 12.4066 4.7847 12.8025L13.2389 21.2566C13.4347 21.4525 13.6673 21.608 13.9232 21.714C14.1792 21.82 14.4535 21.8746 14.7305 21.8746C15.0076 21.8746 15.2819 21.82 15.5378 21.714C15.7938 21.608 16.0263 21.4525 16.2222 21.2566L21.2576 16.2212C21.4535 16.0253 21.6089 15.7928 21.715 15.5369C21.821 15.2809 21.8756 15.0066 21.8756 14.7296C21.8756 14.4525 21.821 14.1782 21.715 13.9223C21.6089 13.6663 21.4535 13.4338 21.2576 13.2379L12.8024 4.78372C12.407 4.38841 11.8709 4.16623 11.3118 4.16602H7.29199C6.46319 4.16602 5.66833 4.49526 5.08228 5.08131C4.49623 5.66736 4.16699 6.46221 4.16699 7.29102Z" stroke="#6A6968" stroke-width="1.5" stroke-linecap="round" stroke-linejoin="round"/>
</g>
<defs>
<clipPath id="clip0_6919_3673">
<rect width="25" height="25" fill="white" transform="translate(0.000244141)"/>
</clipPath>
</defs>
</svg>
