<svg width="31" height="31" viewBox="0 0 31 31" fill="none" xmlns="http://www.w3.org/2000/svg">
<circle cx="15.1667" cy="15.5" r="15" fill="#F4DA7B"/>
<path d="M17.4161 22.2493V17.7492C17.4161 17.5503 17.3371 17.3595 17.1965 17.2189C17.0558 17.0782 16.8651 16.9992 16.6661 16.9992H13.6661C13.4672 16.9992 13.2765 17.0782 13.1358 17.2189C12.9952 17.3595 12.9161 17.5503 12.9161 17.7492V22.2493C12.9161 22.4482 12.8371 22.6389 12.6965 22.7796C12.5559 22.9202 12.3651 22.9992 12.1662 22.9993L7.66678 22.9999C7.56828 22.9999 7.47074 22.9805 7.37974 22.9428C7.28873 22.9051 7.20604 22.8499 7.13639 22.7802C7.06674 22.7106 7.01148 22.6279 6.97379 22.5369C6.93609 22.4459 6.91669 22.3484 6.91669 22.2499V13.5817C6.91669 13.4772 6.93852 13.3739 6.98079 13.2783C7.02306 13.1828 7.08482 13.0971 7.16213 13.0268L14.6616 6.20791C14.7997 6.08238 14.9796 6.01282 15.1661 6.01282C15.3527 6.01281 15.5326 6.08236 15.6707 6.20787L23.1712 13.0268C23.2485 13.0971 23.3103 13.1828 23.3526 13.2783C23.3948 13.3739 23.4167 13.4772 23.4167 13.5817V22.2499C23.4167 22.3484 23.3973 22.4459 23.3596 22.5369C23.3219 22.6279 23.2666 22.7106 23.197 22.7802C23.1273 22.8499 23.0446 22.9051 22.9536 22.9428C22.8626 22.9805 22.7651 22.9999 22.6666 22.9999L18.166 22.9993C17.9671 22.9993 17.7764 22.9202 17.6358 22.7796C17.4951 22.6389 17.4161 22.4482 17.4161 22.2493V22.2493Z" stroke="#382D05" stroke-width="2" stroke-linecap="round" stroke-linejoin="round"/>
</svg>
