<svg width="25" height="26" viewBox="0 0 25 26" fill="none" xmlns="http://www.w3.org/2000/svg">
<g clip-path="url(#clip0_6900_31794)">
<path d="M4.16663 13.0007C4.16663 13.2769 4.27637 13.5419 4.47172 13.7372C4.66707 13.9326 4.93203 14.0423 5.20829 14.0423C5.48456 14.0423 5.74951 13.9326 5.94486 13.7372C6.14021 13.5419 6.24996 13.2769 6.24996 13.0007C6.24996 12.7244 6.14021 12.4594 5.94486 12.2641C5.74951 12.0687 5.48456 11.959 5.20829 11.959C4.93203 11.959 4.66707 12.0687 4.47172 12.2641C4.27637 12.4594 4.16663 12.7244 4.16663 13.0007Z" fill="#D9D9D9" stroke="#D9D9D9" stroke-width="1.5" stroke-linecap="round" stroke-linejoin="round"/>
<path d="M11.4584 13.0007C11.4584 13.2769 11.5681 13.5419 11.7635 13.7372C11.9588 13.9326 12.2238 14.0423 12.5 14.0423C12.7763 14.0423 13.0413 13.9326 13.2366 13.7372C13.432 13.5419 13.5417 13.2769 13.5417 13.0007C13.5417 12.7244 13.432 12.4594 13.2366 12.2641C13.0413 12.0687 12.7763 11.959 12.5 11.959C12.2238 11.959 11.9588 12.0687 11.7635 12.2641C11.5681 12.4594 11.4584 12.7244 11.4584 13.0007Z" fill="#D9D9D9" stroke="#D9D9D9" stroke-width="1.5" stroke-linecap="round" stroke-linejoin="round"/>
<path d="M18.75 13.0007C18.75 13.2769 18.8597 13.5419 19.0551 13.7372C19.2504 13.9326 19.5154 14.0423 19.7917 14.0423C20.0679 14.0423 20.3329 13.9326 20.5282 13.7372C20.7236 13.5419 20.8333 13.2769 20.8333 13.0007C20.8333 12.7244 20.7236 12.4594 20.5282 12.2641C20.3329 12.0687 20.0679 11.959 19.7917 11.959C19.5154 11.959 19.2504 12.0687 19.0551 12.2641C18.8597 12.4594 18.75 12.7244 18.75 13.0007Z" fill="#D9D9D9" stroke="#D9D9D9" stroke-width="1.5" stroke-linecap="round" stroke-linejoin="round"/>
</g>
<defs>
<clipPath id="clip0_6900_31794">
<rect width="25" height="25" fill="white" transform="translate(0 0.5)"/>
</clipPath>
</defs>
</svg>
