<svg width="25" height="25" viewBox="0 0 25 25" fill="none" xmlns="http://www.w3.org/2000/svg">
<g clip-path="url(#clip0_6919_3677)">
<path d="M17.7502 11C17.7502 11.1989 17.6712 11.3897 17.5306 11.5303C17.3899 11.671 17.1992 11.75 17.0002 11.75H11.0002C10.8013 11.75 10.6106 11.671 10.4699 11.5303C10.3293 11.3897 10.2502 11.1989 10.2502 11C10.2502 10.8011 10.3293 10.6103 10.4699 10.4697C10.6106 10.329 10.8013 10.25 11.0002 10.25H17.0002C17.1992 10.25 17.3899 10.329 17.5306 10.4697C17.6712 10.6103 17.7502 10.8011 17.7502 11ZM17.0002 13.25H11.0002C10.8013 13.25 10.6106 13.329 10.4699 13.4697C10.3293 13.6103 10.2502 13.8011 10.2502 14C10.2502 14.1989 10.3293 14.3897 10.4699 14.5303C10.6106 14.671 10.8013 14.75 11.0002 14.75H17.0002C17.1992 14.75 17.3899 14.671 17.5306 14.5303C17.6712 14.3897 17.7502 14.1989 17.7502 14C17.7502 13.8011 17.6712 13.6103 17.5306 13.4697C17.3899 13.329 17.1992 13.25 17.0002 13.25ZM21.5002 5V20C21.5002 20.3978 21.3422 20.7794 21.0609 21.0607C20.7796 21.342 20.3981 21.5 20.0002 21.5H5.00024C4.60242 21.5 4.22089 21.342 3.93958 21.0607C3.65828 20.7794 3.50024 20.3978 3.50024 20V5C3.50024 4.60218 3.65828 4.22064 3.93958 3.93934C4.22089 3.65804 4.60242 3.5 5.00024 3.5H20.0002C20.3981 3.5 20.7796 3.65804 21.0609 3.93934C21.3422 4.22064 21.5002 4.60218 21.5002 5ZM5.00024 20H7.25024V5H5.00024V20ZM20.0002 20V5H8.75024V20H20.0002Z" fill="#6A6968"/>
</g>
<defs>
<clipPath id="clip0_6919_3677">
<rect width="25" height="25" fill="white" transform="translate(0.000244141)"/>
</clipPath>
</defs>
</svg>
