<?xml version="1.0" encoding="UTF-8"?>
<svg xmlns="http://www.w3.org/2000/svg" xmlns:xlink="http://www.w3.org/1999/xlink" width="26" height="26" viewBox="0 0 26 26" version="1.1">
<g id="surface1">
<path style=" stroke:none;fill-rule:nonzero;fill:rgb(0%,0%,0%);fill-opacity:1;" d="M 14.21875 13 C 14.21875 13.671875 13.671875 14.21875 13 14.21875 C 12.328125 14.21875 11.78125 13.671875 11.78125 13 C 11.78125 12.328125 12.328125 11.78125 13 11.78125 C 13.671875 11.78125 14.21875 12.328125 14.21875 13 Z M 14.21875 13 "/>
<path style=" stroke:none;fill-rule:nonzero;fill:rgb(0%,0%,0%);fill-opacity:1;" d="M 20.71875 13 C 20.71875 13.671875 20.171875 14.21875 19.5 14.21875 C 18.828125 14.21875 18.28125 13.671875 18.28125 13 C 18.28125 12.328125 18.828125 11.78125 19.5 11.78125 C 20.171875 11.78125 20.71875 12.328125 20.71875 13 Z M 20.71875 13 "/>
<path style=" stroke:none;fill-rule:nonzero;fill:rgb(0%,0%,0%);fill-opacity:1;" d="M 7.71875 13 C 7.71875 13.671875 7.171875 14.21875 6.5 14.21875 C 5.828125 14.21875 5.28125 13.671875 5.28125 13 C 5.28125 12.328125 5.828125 11.78125 6.5 11.78125 C 7.171875 11.78125 7.71875 12.328125 7.71875 13 Z M 7.71875 13 "/>
</g>
</svg>
