<svg width="570" height="340" viewBox="0 0 570 340" fill="none" xmlns="http://www.w3.org/2000/svg">
<g filter="url(#filter0_d)">
<path d="M50 32C50 25.3726 55.3726 20 62 20H490V260H50V32Z" fill="white"/>
</g>
<path d="M50 32C50 25.3726 55.3726 20 62 20H490V60H50V32Z" fill="#E9E9E9"/>
<circle cx="70" cy="40" r="5" fill="#EE6A5F"/>
<circle cx="90" cy="40" r="5" fill="#F6BE4F"/>
<circle cx="110" cy="40" r="5" fill="#64CA57"/>
<path d="M74.5 85.5L70 81M70 81L74.5 76.5M70 81H86" stroke="#C8CCDC" stroke-width="1.8" stroke-linecap="round" stroke-linejoin="round"/>
<path d="M117.5 85.5L122 81M122 81L117.5 76.5M122 81H106" stroke="#C8CCDC" stroke-width="1.8" stroke-linecap="round" stroke-linejoin="round"/>
<path d="M160 80.5C160 72.4919 166.492 66 174.5 66H490V95H174.5C166.492 95 160 88.5081 160 80.5Z" fill="#F3F3F3"/>
<path d="M50.5 105.5H489.5" stroke="#E9E9E9"/>
<rect y="122" width="530" height="218" fill="url(#paint0_linear)"/>
<rect x="361" y="340" width="340" height="209" transform="rotate(-90 361 340)" fill="url(#paint1_linear)"/>
<path opacity="0.4" d="M176.5 83.8857C175.7 83.8857 175.119 83.4961 175.119 82.8262C175.119 82.1699 175.584 81.8213 176.609 81.7529L178.428 81.6367V82.2588C178.428 83.1816 177.607 83.8857 176.5 83.8857ZM176.124 85.123C177.102 85.123 177.915 84.6992 178.359 83.9541H178.476V85H179.891V79.9141C179.891 78.3418 178.838 77.4121 176.972 77.4121C175.283 77.4121 174.08 78.2324 173.93 79.5107H175.352C175.516 78.9844 176.083 78.6836 176.903 78.6836C177.908 78.6836 178.428 79.1279 178.428 79.9141V80.5566L176.411 80.6729C174.641 80.7822 173.643 81.5547 173.643 82.8945C173.643 84.2549 174.688 85.123 176.124 85.123ZM181.982 85H183.452V80.4473C183.452 79.4902 184.129 78.7588 185.024 78.7588C185.899 78.7588 186.46 79.2715 186.46 80.1123V85H187.902V80.3174C187.902 79.4424 188.524 78.7588 189.475 78.7588C190.438 78.7588 190.917 79.251 190.917 80.2559V85H192.387V79.873C192.387 78.3213 191.512 77.4121 190.008 77.4121C188.976 77.4121 188.121 77.9385 187.745 78.752H187.629C187.301 77.9385 186.597 77.4121 185.578 77.4121C184.587 77.4121 183.835 77.9111 183.507 78.752H183.397V77.5557H181.982V85ZM194.451 85H195.921V80.6455C195.921 79.4834 196.611 78.7588 197.698 78.7588C198.785 78.7588 199.305 79.3535 199.305 80.5498V85H200.774V80.1807C200.774 78.4102 199.858 77.4121 198.197 77.4121C197.076 77.4121 196.338 77.9111 195.976 78.7383H195.866V77.5557H194.451V85ZM202.873 85H204.336V77.5557H202.873V85ZM203.604 76.2637C204.117 76.2637 204.534 75.833 204.534 75.3066C204.534 74.7734 204.117 74.3428 203.604 74.3428C203.092 74.3428 202.675 74.7734 202.675 75.3066C202.675 75.833 203.092 76.2637 203.604 76.2637ZM212.799 77.5557H211.24L209.395 83.4277H209.278L207.426 77.5557H205.854L208.54 85H210.119L212.799 77.5557ZM217.146 85.1436C219.32 85.1436 220.653 83.6875 220.653 81.2744C220.653 78.875 219.313 77.4121 217.146 77.4121C214.973 77.4121 213.633 78.875 213.633 81.2744C213.633 83.6875 214.966 85.1436 217.146 85.1436ZM217.146 83.8379C215.868 83.8379 215.15 82.9014 215.15 81.2744C215.15 79.6611 215.868 78.7178 217.146 78.7178C218.418 78.7178 219.143 79.6611 219.143 81.2744C219.143 82.8945 218.418 83.8379 217.146 83.8379ZM222.424 85H223.894V80.6045C223.894 79.5586 224.68 78.8545 225.794 78.8545C226.054 78.8545 226.491 78.9023 226.614 78.9434V77.4941C226.457 77.4531 226.177 77.4326 225.958 77.4326C224.987 77.4326 224.16 77.9658 223.948 78.6973H223.839V77.5557H222.424V85ZM230.894 78.6631C231.98 78.6631 232.691 79.4219 232.726 80.5908H228.966C229.048 79.4287 229.807 78.6631 230.894 78.6631ZM232.719 82.9902C232.445 83.5713 231.837 83.8926 230.948 83.8926C229.772 83.8926 229.014 83.0654 228.966 81.7598V81.6777H234.223V81.165C234.223 78.8271 232.972 77.4121 230.9 77.4121C228.802 77.4121 227.469 78.9229 227.469 81.3018C227.469 83.6807 228.774 85.1436 230.907 85.1436C232.609 85.1436 233.812 84.3164 234.134 82.9902H232.719ZM237.128 85.1162C237.709 85.1162 238.133 84.6719 238.133 84.0977C238.133 83.5234 237.709 83.0791 237.128 83.0791C236.554 83.0791 236.123 83.5234 236.123 84.0977C236.123 84.6719 236.554 85.1162 237.128 85.1162ZM246.432 79.9893C246.24 78.499 245.112 77.4121 243.246 77.4121C241.079 77.4121 239.76 78.8682 239.76 81.2539C239.76 83.6807 241.086 85.1436 243.253 85.1436C245.092 85.1436 246.24 84.1045 246.432 82.6074H245.003C244.812 83.4072 244.176 83.8311 243.246 83.8311C242.022 83.8311 241.264 82.8672 241.264 81.2539C241.264 79.668 242.016 78.7246 243.246 78.7246C244.23 78.7246 244.832 79.2646 245.003 79.9893H246.432ZM251.258 85.1436C253.432 85.1436 254.765 83.6875 254.765 81.2744C254.765 78.875 253.425 77.4121 251.258 77.4121C249.084 77.4121 247.744 78.875 247.744 81.2744C247.744 83.6875 249.077 85.1436 251.258 85.1436ZM251.258 83.8379C249.979 83.8379 249.262 82.9014 249.262 81.2744C249.262 79.6611 249.979 78.7178 251.258 78.7178C252.529 78.7178 253.254 79.6611 253.254 81.2744C253.254 82.8945 252.529 83.8379 251.258 83.8379ZM256.535 85H258.005V80.4473C258.005 79.4902 258.682 78.7588 259.577 78.7588C260.452 78.7588 261.013 79.2715 261.013 80.1123V85H262.455V80.3174C262.455 79.4424 263.077 78.7588 264.027 78.7588C264.991 78.7588 265.47 79.251 265.47 80.2559V85H266.939V79.873C266.939 78.3213 266.064 77.4121 264.561 77.4121C263.528 77.4121 262.674 77.9385 262.298 78.752H262.182C261.854 77.9385 261.149 77.4121 260.131 77.4121C259.14 77.4121 258.388 77.9111 258.06 78.752H257.95V77.5557H256.535V85Z" fill="#3D3D3D"/>
<g filter="url(#filter1_d)">
<circle cx="178" cy="132" r="52" fill="white"/>
<circle cx="178" cy="132" r="49.5" stroke="url(#paint2_linear)" stroke-width="5"/>
</g>
<mask id="mask0" mask-type="alpha" maskUnits="userSpaceOnUse" x="131" y="85" width="94" height="94">
<circle cx="178" cy="132" r="47" fill="white"/>
</mask>
<g mask="url(#mask0)">
<path d="M161.015 76.5971C161.015 66.8785 168.893 59 178.612 59H561.5V94.1942H178.612C168.893 94.1942 161.015 86.3157 161.015 76.5971Z" fill="#F3F3F3"/>
<path d="M28.126 107.5H560.893" stroke="#E9E9E9" stroke-width="1.6"/>
<rect x="131" y="114" width="88" height="33" rx="4" fill="#ACACAC"/>
<path d="M145.559 131.246H147.891V130.033H145.559V127.602H144.404V130.033H142.078V131.246H144.404V133.678H145.559V131.246ZM156.914 125.34C154.488 125.34 152.965 127.039 152.965 129.77C152.965 132.494 154.453 134.205 156.914 134.205C159.357 134.205 160.857 132.488 160.857 129.77C160.857 127.045 159.346 125.34 156.914 125.34ZM156.914 126.564C158.514 126.564 159.516 127.807 159.516 129.77C159.516 131.721 158.52 132.98 156.914 132.98C155.285 132.98 154.307 131.721 154.307 129.77C154.307 127.807 155.314 126.564 156.914 126.564ZM162.492 134H163.752V130.098C163.752 129.277 164.332 128.65 165.1 128.65C165.85 128.65 166.33 129.09 166.33 129.811V134H167.566V129.986C167.566 129.236 168.1 128.65 168.914 128.65C169.74 128.65 170.15 129.072 170.15 129.934V134H171.41V129.605C171.41 128.275 170.66 127.496 169.371 127.496C168.486 127.496 167.754 127.947 167.432 128.645H167.332C167.051 127.947 166.447 127.496 165.574 127.496C164.725 127.496 164.08 127.924 163.799 128.645H163.705V127.619H162.492V134ZM173.18 134H174.439V130.268C174.439 129.271 175.031 128.65 175.963 128.65C176.895 128.65 177.34 129.16 177.34 130.186V134H178.6V129.869C178.6 128.352 177.814 127.496 176.391 127.496C175.43 127.496 174.797 127.924 174.486 128.633H174.393V127.619H173.18V134ZM180.398 134H181.652V127.619H180.398V134ZM181.025 126.512C181.465 126.512 181.822 126.143 181.822 125.691C181.822 125.234 181.465 124.865 181.025 124.865C180.586 124.865 180.229 125.234 180.229 125.691C180.229 126.143 180.586 126.512 181.025 126.512ZM188.906 127.619H187.57L185.988 132.652H185.889L184.301 127.619H182.953L185.256 134H186.609L188.906 127.619ZM192.633 134.123C194.496 134.123 195.639 132.875 195.639 130.807C195.639 128.75 194.49 127.496 192.633 127.496C190.77 127.496 189.621 128.75 189.621 130.807C189.621 132.875 190.764 134.123 192.633 134.123ZM192.633 133.004C191.537 133.004 190.922 132.201 190.922 130.807C190.922 129.424 191.537 128.615 192.633 128.615C193.723 128.615 194.344 129.424 194.344 130.807C194.344 132.195 193.723 133.004 192.633 133.004ZM197.156 134H198.416V130.232C198.416 129.336 199.09 128.732 200.045 128.732C200.268 128.732 200.643 128.773 200.748 128.809V127.566C200.613 127.531 200.373 127.514 200.186 127.514C199.354 127.514 198.645 127.971 198.463 128.598H198.369V127.619H197.156V134ZM204.416 128.568C205.348 128.568 205.957 129.219 205.986 130.221H202.764C202.834 129.225 203.484 128.568 204.416 128.568ZM205.98 132.277C205.746 132.775 205.225 133.051 204.463 133.051C203.455 133.051 202.805 132.342 202.764 131.223V131.152H207.27V130.713C207.27 128.709 206.197 127.496 204.422 127.496C202.623 127.496 201.48 128.791 201.48 130.83C201.48 132.869 202.6 134.123 204.428 134.123C205.887 134.123 206.918 133.414 207.193 132.277H205.98Z" fill="white"/>
<g filter="url(#filter2_d)">
<circle cx="178" cy="132" r="49.5" stroke="url(#paint3_linear)" stroke-width="5"/>
</g>
</g>
<defs>
<filter id="filter0_d" x="6" y="6" width="528" height="328" filterUnits="userSpaceOnUse" color-interpolation-filters="sRGB">
<feFlood flood-opacity="0" result="BackgroundImageFix"/>
<feColorMatrix in="SourceAlpha" type="matrix" values="0 0 0 0 0 0 0 0 0 0 0 0 0 0 0 0 0 0 127 0"/>
<feOffset dy="30"/>
<feGaussianBlur stdDeviation="22"/>
<feColorMatrix type="matrix" values="0 0 0 0 0.439583 0 0 0 0 0.452875 0 0 0 0 0.5 0 0 0 0.28 0"/>
<feBlend mode="normal" in2="BackgroundImageFix" result="effect1_dropShadow"/>
<feBlend mode="normal" in="SourceGraphic" in2="effect1_dropShadow" result="shape"/>
</filter>
<filter id="filter1_d" x="119" y="78" width="118" height="118" filterUnits="userSpaceOnUse" color-interpolation-filters="sRGB">
<feFlood flood-opacity="0" result="BackgroundImageFix"/>
<feColorMatrix in="SourceAlpha" type="matrix" values="0 0 0 0 0 0 0 0 0 0 0 0 0 0 0 0 0 0 127 0"/>
<feOffset dy="5"/>
<feGaussianBlur stdDeviation="3.5"/>
<feColorMatrix type="matrix" values="0 0 0 0 0 0 0 0 0 0 0 0 0 0 0 0 0 0 0.24 0"/>
<feBlend mode="normal" in2="BackgroundImageFix" result="effect1_dropShadow"/>
<feBlend mode="normal" in="SourceGraphic" in2="effect1_dropShadow" result="shape"/>
</filter>
<filter id="filter2_d" x="124" y="79" width="108" height="108" filterUnits="userSpaceOnUse" color-interpolation-filters="sRGB">
<feFlood flood-opacity="0" result="BackgroundImageFix"/>
<feColorMatrix in="SourceAlpha" type="matrix" values="0 0 0 0 0 0 0 0 0 0 0 0 0 0 0 0 0 0 127 0"/>
<feOffset dy="1"/>
<feGaussianBlur stdDeviation="1"/>
<feColorMatrix type="matrix" values="0 0 0 0 0 0 0 0 0 0 0 0 0 0 0 0 0 0 0.06 0"/>
<feBlend mode="normal" in2="BackgroundImageFix" result="effect1_dropShadow"/>
<feBlend mode="normal" in="SourceGraphic" in2="effect1_dropShadow" result="shape"/>
</filter>
<linearGradient id="paint0_linear" x1="265.484" y1="103.327" x2="266.078" y2="217.1" gradientUnits="userSpaceOnUse">
<stop stop-color="white" stop-opacity="0"/>
<stop offset="1" stop-color="#f8f8f8"/>
</linearGradient>
<linearGradient id="paint1_linear" x1="531.311" y1="322.098" x2="532.161" y2="431.171" gradientUnits="userSpaceOnUse">
<stop stop-color="white" stop-opacity="0"/>
<stop offset="1" stop-color="#f8f8f8"/>
</linearGradient>
<linearGradient id="paint2_linear" x1="178" y1="80" x2="178" y2="184" gradientUnits="userSpaceOnUse">
<stop stop-color="#EEEEEE"/>
<stop offset="1" stop-color="white"/>
</linearGradient>
<linearGradient id="paint3_linear" x1="178" y1="80" x2="178" y2="184" gradientUnits="userSpaceOnUse">
<stop stop-color="#EEEEEE"/>
<stop offset="1" stop-color="white"/>
</linearGradient>
</defs>
</svg>
