<svg width="195" height="99" viewBox="0 0 195 99" fill="none" xmlns="http://www.w3.org/2000/svg">
<path d="M128.636 89.402C126.977 90.5521 124.719 89.8812 123.798 89.402C119.206 85.0893 131.401 62.0881 139.696 68.5572C147.991 75.0263 130.71 87.9645 128.636 89.402Z" fill="#3D3D3D"/>
<path d="M194.132 90.0391H1" stroke="#3D3D3D"/>
<path d="M79.1828 1.63898C73.8944 2.99227 76 10.0971 77.7138 13.4803C81.1414 12.3525 87.9966 9.58957 87.9966 7.55963C87.9966 5.02221 85.7932 -0.0526346 79.1828 1.63898Z" fill="#3D3D3D"/>
<path d="M115.703 26.6018C116.399 30.0817 113.673 33.8515 112.223 35.3015V57.0474C118.603 61.3973 131.494 71.2605 131.494 76.1323C131.494 82.222 126.275 86.5718 121.793 88.3661C116.584 90.4516 107.135 90.0517 102.786 90.0517C98.8737 90.0517 95.6938 90.4541 88.7341 91.846C68.7249 95.3259 60.8952 87.4418 59.1554 77.9266C57.9637 71.4092 61.7652 52.6976 60.8953 47.4778C60.0253 42.2581 68.7249 36.1715 73.9447 20.5121C79.1645 4.85275 91.344 6.59267 99.1737 6.59267C107.003 6.59267 114.833 22.252 115.703 26.6018Z" fill="white" stroke="#3D3D3D" stroke-linecap="round" stroke-linejoin="round"/>
<path d="M127.145 58.7117C127.841 62.1916 125.695 64.8015 124.535 65.6714C121.055 63.3515 113.574 59.2335 111.486 57.8409C108.876 56.1002 102.786 57.8409 97.5665 58.7117C92.3467 59.5825 85.387 54.3611 79.2972 52.6212C73.2075 50.8812 63.6378 56.101 61.0279 55.231C58.4181 54.3611 60.158 48.2713 60.158 43.9215C60.158 40.4417 63.6379 36.0918 67.1177 34.3519C69.7276 34.6419 70.4236 35.7438 73.2075 37.8318C76.6873 40.4417 84.517 39.5725 88.8668 39.5725C93.2166 39.5725 106.266 31.7428 112.356 33.4828C118.446 35.2227 119.316 42.1824 120.186 44.7923C121.055 47.4022 126.275 54.3619 127.145 58.7117Z" fill="#3D3D3D"/>
<path d="M109.282 1.36483C105.746 0.681322 102.898 5.63678 101.916 8.19995C104.126 9.05164 105.815 16.1424 106.336 16.7465C107.072 17.6009 112.965 15.8921 115.175 11.6202C117.385 7.34825 113.702 2.21922 109.282 1.36483Z" fill="#3D3D3D"/>
<path d="M80.1665 93.5272C83.6463 90.9173 77.5566 85.6975 73.2068 85.6975C67.987 84.8275 65.3771 90.0473 68.8569 94.3971C72.3368 98.7469 76.6866 96.137 80.1665 93.5272Z" fill="#3D3D3D"/>
</svg>
