<svg width="26" height="25" viewBox="0 0 26 25" fill="none" xmlns="http://www.w3.org/2000/svg">
<g clip-path="url(#clip0_6802_32619)">
<path d="M5.08984 10.6667C5.08984 11.5093 5.25582 12.3437 5.57828 13.1222C5.90075 13.9007 6.3734 14.6081 6.96924 15.2039C7.56508 15.7998 8.27245 16.2724 9.05096 16.5949C9.82946 16.9174 10.6639 17.0833 11.5065 17.0833C12.3492 17.0833 13.1836 16.9174 13.9621 16.5949C14.7406 16.2724 15.4479 15.7998 16.0438 15.2039C16.6396 14.6081 17.1123 13.9007 17.4347 13.1222C17.7572 12.3437 17.9232 11.5093 17.9232 10.6667C17.9232 9.82402 17.7572 8.98962 17.4347 8.21111C17.1123 7.43261 16.6396 6.72524 16.0438 6.1294C15.4479 5.53356 14.7406 5.06091 13.9621 4.73844C13.1836 4.41597 12.3492 4.25 11.5065 4.25C10.6639 4.25 9.82946 4.41597 9.05096 4.73844C8.27245 5.06091 7.56508 5.53356 6.96924 6.1294C6.3734 6.72524 5.90075 7.43261 5.57828 8.21111C5.25582 8.98962 5.08984 9.82402 5.08984 10.6667Z" stroke="#EDEDED" stroke-width="1.5" stroke-linecap="round" stroke-linejoin="round"/>
<path d="M21.5898 20.75L16.0898 15.25" stroke="#EDEDED" stroke-width="1.5" stroke-linecap="round" stroke-linejoin="round"/>
</g>
<defs>
<clipPath id="clip0_6802_32619">
<rect width="25" height="25" fill="white" transform="translate(0.839844)"/>
</clipPath>
</defs>
</svg>
