<svg width="31" height="30" viewBox="0 0 31 30" fill="none" xmlns="http://www.w3.org/2000/svg">
<circle cx="15.5" cy="15" r="15" fill="#3D3D3D"/>
<g clip-path="url(#clip0_11897_4271)">
<path d="M10.9166 12.2493C10.9166 12.4704 11.0044 12.6823 11.1607 12.8386C11.317 12.9949 11.5289 13.0827 11.75 13.0827C11.971 13.0827 12.1829 12.9949 12.3392 12.8386C12.4955 12.6823 12.5833 12.4704 12.5833 12.2493C12.5833 12.0283 12.4955 11.8164 12.3392 11.6601C12.1829 11.5038 11.971 11.416 11.75 11.416C11.5289 11.416 11.317 11.5038 11.1607 11.6601C11.0044 11.8164 10.9166 12.0283 10.9166 12.2493Z" stroke="white" stroke-width="1.25" stroke-linecap="round" stroke-linejoin="round"/>
<path d="M8 11V15.31C8.00009 15.752 8.17575 16.1758 8.48833 16.4883L14.9133 22.9133C15.29 23.2899 15.8007 23.5015 16.3333 23.5015C16.8659 23.5015 17.3767 23.2899 17.7533 22.9133L22.4133 18.2533C22.7899 17.8767 23.0015 17.3659 23.0015 16.8333C23.0015 16.3007 22.7899 15.79 22.4133 15.4133L15.9883 8.98833C15.6758 8.67575 15.252 8.50009 14.81 8.5H10.5C9.83696 8.5 9.20107 8.76339 8.73223 9.23223C8.26339 9.70107 8 10.337 8 11Z" stroke="white" stroke-width="1.25" stroke-linecap="round" stroke-linejoin="round"/>
</g>
<defs>
<clipPath id="clip0_11897_4271">
<rect width="20" height="20" fill="white" transform="translate(5.5 6)"/>
</clipPath>
</defs>
</svg>
