<svg width="31" height="30" viewBox="0 0 31 30" fill="none" xmlns="http://www.w3.org/2000/svg">
<circle class="circle-bg" cx="15.5" cy="15" r="15" fill="#6A6968"/>
<g clip-path="url(#clip0_11897_4264)">
<path d="M11 9.00021V21.0002C11 21.1337 11.0355 21.2647 11.103 21.3798C11.1705 21.4949 11.2675 21.5899 11.384 21.6551C11.5005 21.7202 11.6322 21.753 11.7657 21.7503C11.8991 21.7475 12.0293 21.7091 12.143 21.6392L21.893 15.6392C22.0022 15.5721 22.0924 15.4781 22.1549 15.3663C22.2175 15.2544 22.2503 15.1284 22.2503 15.0002C22.2503 14.872 22.2175 14.746 22.1549 14.6341C22.0924 14.5223 22.0022 14.4283 21.893 14.3612L12.143 8.36121C12.0293 8.29128 11.8991 8.25295 11.7657 8.25016C11.6322 8.24738 11.5005 8.28024 11.384 8.34536C11.2675 8.41048 11.1705 8.50549 11.103 8.62061C11.0355 8.73572 11 8.86676 11 9.00021Z" fill="white"/>
</g>
<defs>
<clipPath id="clip0_11897_4264">
<rect width="18" height="18" fill="white" transform="translate(6.5 6)"/>
</clipPath>
</defs>
</svg>
