<svg width="31" height="32" viewBox="0 0 31 32" fill="none" xmlns="http://www.w3.org/2000/svg">
<circle cx="15.5" cy="16.1582" r="15" fill="#3D3D3D"/>
<path d="M15.5 31.1582C13.5302 31.1582 11.5796 30.7702 9.75975 30.0164C7.93986 29.2626 6.28628 28.1577 4.8934 26.7648C3.50052 25.3719 2.39563 23.7183 1.64181 21.8985C0.887985 20.0786 0.499999 18.128 0.499999 16.1582C0.5 14.1884 0.887986 12.2378 1.64181 10.4179C2.39563 8.59807 3.50052 6.94448 4.8934 5.5516C6.28628 4.15872 7.93987 3.05383 9.75975 2.30001C11.5796 1.54619 13.5302 1.1582 15.5 1.1582C17.4698 1.1582 19.4204 1.54619 21.2403 2.30001C23.0601 3.05383 24.7137 4.15872 26.1066 5.5516C27.4995 6.94448 28.6044 8.59807 29.3582 10.418C30.112 12.2378 30.5 14.1884 30.5 16.1582C30.5 18.128 30.112 20.0786 29.3582 21.8985C28.6044 23.7183 27.4995 25.3719 26.1066 26.7648C24.7137 28.1577 23.0601 29.2626 21.2402 30.0164C19.4204 30.7702 17.4698 31.1582 15.5 31.1582L15.5 31.1582Z" stroke="#898989"/>
<g clip-path="url(#clip0_11902_5015)">
<path d="M18.1266 11.6096C17.9021 11.8338 17.902 12.1975 18.1263 12.4219C19.6353 13.932 19.6344 16.39 18.1241 17.9011C17.8999 18.1256 17.9 18.4892 18.1243 18.7135C18.2366 18.8256 18.3835 18.8817 18.5305 18.8817C18.6776 18.8817 18.8247 18.8255 18.9369 18.7133C20.8945 16.7543 20.8955 13.5678 18.939 11.6098C18.7148 11.3854 18.351 11.3852 18.1266 11.6096Z" fill="white"/>
<path d="M15.979 13.2581C15.7545 13.4822 15.7544 13.846 15.9787 14.0704C16.5803 14.6725 16.5802 15.6521 15.9786 16.2541C15.7543 16.4785 15.7544 16.8422 15.9789 17.0665C16.091 17.1786 16.238 17.2346 16.3849 17.2346C16.532 17.2346 16.6791 17.1785 16.7913 17.0662C17.8404 16.0164 17.8404 14.3081 16.7914 13.2583C16.5672 13.0338 16.2034 13.0337 15.979 13.2581Z" fill="white"/>
<path d="M21.4821 9.06494C21.2578 8.84045 20.8941 8.84033 20.6697 9.0646C20.4452 9.28886 20.4451 9.65261 20.6694 9.87699C23.5803 12.7897 23.579 17.5303 20.6665 20.4444C20.4421 20.6687 20.4423 21.0325 20.6667 21.2567C20.7789 21.3688 20.9258 21.4249 21.0728 21.4249C21.2198 21.4249 21.367 21.3687 21.4791 21.2565C24.8392 17.8946 24.8405 12.4254 21.4821 9.06494Z" fill="white"/>
<path d="M11.1793 18.8664C12.6562 18.7646 13.8271 17.5299 13.8271 16.0258C13.8271 14.4553 12.5508 13.1777 10.9821 13.1777C9.4133 13.1777 8.13699 14.4553 8.13699 16.0258C8.13699 17.5298 9.30775 18.7645 10.7848 18.8664C9.67895 18.9089 8.70503 19.3084 8.02629 20.0031C7.32894 20.7169 6.97457 21.705 7.00142 22.861C7.00869 23.1729 7.26363 23.4221 7.5757 23.4221H14.3878C14.6999 23.4221 14.9549 23.1729 14.9621 22.8609C14.989 21.7049 14.6345 20.7166 13.9371 20.0029C13.2585 19.3083 12.2849 18.9089 11.1793 18.8664ZM9.28589 16.0258C9.28589 15.0889 10.0468 14.3266 10.9821 14.3266C11.9173 14.3266 12.6782 15.0889 12.6782 16.0258C12.6782 16.9628 11.9173 17.7251 10.9821 17.7251C10.0468 17.7251 9.28589 16.9628 9.28589 16.0258ZM8.17677 22.2731C8.25158 21.6784 8.4763 21.1866 8.84812 20.8061C9.34897 20.2935 10.1068 20.0112 10.9819 20.0112C11.857 20.0112 12.6146 20.2934 13.1154 20.8059C13.4871 21.1863 13.712 21.6783 13.7867 22.2731H8.17677Z" fill="white"/>
</g>
<defs>
<clipPath id="clip0_11902_5015">
<rect width="17" height="17" fill="white" transform="translate(7 7.6582)"/>
</clipPath>
</defs>
</svg>
