<svg width="31" height="30" viewBox="0 0 31 30" fill="none" xmlns="http://www.w3.org/2000/svg">
<circle cx="15.5" cy="15" r="15" fill="#3D3D3D"/>
<g clip-path="url(#clip0_11897_4287)">
<path d="M17 7.5C17.9946 7.5 18.9484 7.89509 19.6517 8.59835C20.3549 9.30161 20.75 10.2554 20.75 11.25V21.75C20.75 21.8858 20.7132 22.019 20.6434 22.1355C20.5736 22.252 20.4735 22.3473 20.3538 22.4114C20.2341 22.4755 20.0992 22.5058 19.9636 22.4992C19.828 22.4926 19.6967 22.4494 19.5837 22.374L15.5 19.6515L11.417 22.374C11.31 22.4456 11.1863 22.4885 11.0579 22.4985C10.9295 22.5084 10.8007 22.4852 10.6839 22.4309C10.5671 22.3766 10.4662 22.2932 10.391 22.1887C10.3158 22.0841 10.2688 21.962 10.2545 21.834L10.25 21.75V11.25C10.25 10.2554 10.6451 9.30161 11.3483 8.59835C12.0516 7.89509 13.0054 7.5 14 7.5H17Z" fill="white"/>
</g>
<defs>
<clipPath id="clip0_11897_4287">
<rect width="18" height="18" fill="white" transform="translate(6.5 6)"/>
</clipPath>
</defs>
</svg>
