<svg width="25" height="25" viewBox="0 0 25 25" fill="none" xmlns="http://www.w3.org/2000/svg">
<g clip-path="url(#clip0_6919_3680)">
<path d="M6.25024 6.25065C6.25024 5.97438 6.35999 5.70943 6.55534 5.51408C6.75069 5.31873 7.01564 5.20898 7.29191 5.20898H9.37524C9.65151 5.20898 9.91646 5.31873 10.1118 5.51408C10.3072 5.70943 10.4169 5.97438 10.4169 6.25065V18.7507C10.4169 19.0269 10.3072 19.2919 10.1118 19.4872C9.91646 19.6826 9.65151 19.7923 9.37524 19.7923H7.29191C7.01564 19.7923 6.75069 19.6826 6.55534 19.4872C6.35999 19.2919 6.25024 19.0269 6.25024 18.7507V6.25065Z" stroke="#6A6968" stroke-width="1.75" stroke-linecap="round" stroke-linejoin="round"/>
<path d="M14.5835 6.25065C14.5835 5.97438 14.6932 5.70943 14.8886 5.51408C15.0839 5.31873 15.3489 5.20898 15.6252 5.20898H17.7085C17.9848 5.20898 18.2497 5.31873 18.4451 5.51408C18.6404 5.70943 18.7502 5.97438 18.7502 6.25065V18.7507C18.7502 19.0269 18.6404 19.2919 18.4451 19.4872C18.2497 19.6826 17.9848 19.7923 17.7085 19.7923H15.6252C15.3489 19.7923 15.0839 19.6826 14.8886 19.4872C14.6932 19.2919 14.5835 19.0269 14.5835 18.7507V6.25065Z" stroke="#6A6968" stroke-width="1.75" stroke-linecap="round" stroke-linejoin="round"/>
</g>
<defs>
<clipPath id="clip0_6919_3680">
<rect width="25" height="25" fill="white" transform="translate(0.000244141)"/>
</clipPath>
</defs>
</svg>
